<svg width="139" height="18" viewBox="0 0 139 18" fill="none" xmlns="http://www.w3.org/2000/svg">
<g clip-path="url(#clip0_192_6)">
<path d="M6.99007 7.388C6.96207 7.34133 6.92007 7.318 6.86407 7.318C6.80807 7.318 6.75207 7.34133 6.69607 7.388C6.6494 7.42533 6.62607 7.472 6.62607 7.528C6.62607 7.612 6.72874 7.654 6.93407 7.654C7.0554 7.654 7.15807 7.63533 7.24207 7.598C7.35407 7.56067 7.40074 7.50933 7.38207 7.444C7.3634 7.39733 7.3074 7.388 7.21407 7.416C7.10207 7.45333 7.0274 7.444 6.99007 7.388ZM11.7221 6.8C11.7967 6.8 11.7874 6.75333 11.6941 6.66C11.6847 6.64133 11.6754 6.632 11.6661 6.632C11.6381 6.632 11.6241 6.66 11.6241 6.716C11.6241 6.772 11.6567 6.8 11.7221 6.8ZM11.7921 6.464C11.7174 6.464 11.6987 6.48267 11.7361 6.52C11.7734 6.55733 11.8107 6.55733 11.8481 6.52C11.8481 6.492 11.8294 6.47333 11.7921 6.464ZM7.32607 4.672C8.24074 2.87067 8.7074 1.97 8.72607 1.97L8.92207 2.054C8.99674 2.09133 9.03407 2.12867 9.03407 2.166C9.03407 2.20333 9.00607 2.278 8.95007 2.39C8.86607 2.558 8.8474 2.65133 8.89407 2.67C8.92207 2.698 9.1414 2.73067 9.55207 2.768L10.1541 2.824L10.4341 4.868C10.6114 6.19333 10.7281 6.92133 10.7841 7.052C10.8214 7.136 10.8914 7.07533 10.9941 6.87L11.0221 6.786C11.3581 6.03 11.7781 5.134 12.2821 4.098C12.7954 3.062 13.0941 2.488 13.1781 2.376C13.2807 2.21733 13.3461 2.15667 13.3741 2.194C13.3834 2.20333 13.3974 2.236 13.4161 2.292C13.4534 2.38533 13.5094 2.446 13.5841 2.474C13.6681 2.502 13.8501 2.53933 14.1301 2.586C14.5221 2.65133 14.7554 2.70267 14.8301 2.74C14.9047 2.77733 14.9421 2.86133 14.9421 2.992C14.9421 3.09467 14.9654 3.17867 15.0121 3.244C15.0681 3.30933 15.1801 3.39333 15.3481 3.496L15.8101 3.79C15.8101 4.13533 15.6747 5.09667 15.4041 6.674C15.1241 8.39133 14.9841 9.37133 14.9841 9.614C14.9841 9.754 14.9981 9.87067 15.0261 9.964C15.0634 10.132 15.0821 10.2393 15.0821 10.286C15.0821 10.426 14.9747 10.7667 14.7601 11.308L14.3961 12.232L14.1021 12.218L13.7941 12.19L13.5981 11.168C13.5047 10.7013 13.4581 10.3 13.4581 9.964V9.894C13.5701 9.23133 13.6774 8.004 13.7801 6.212C13.8174 5.596 13.8501 5.19 13.8781 4.994C13.9154 4.77933 13.9061 4.672 13.8501 4.672C13.8127 4.672 13.6634 4.94733 13.4021 5.498C13.1407 6.03933 12.9027 6.562 12.6881 7.066C12.6041 7.28067 12.5387 7.388 12.4921 7.388C12.4641 7.388 12.4407 7.444 12.4221 7.556C12.4127 7.668 12.1747 8.228 11.7081 9.236C11.2507 10.244 10.9987 10.7573 10.9521 10.776H10.9381C10.8447 10.776 10.5974 10.6173 10.1961 10.3C9.79474 9.97333 9.58007 9.75867 9.55207 9.656C9.51474 9.53467 9.49607 9.40867 9.49607 9.278C9.49607 9.10067 9.5334 9.012 9.60807 9.012C9.6454 9.012 9.69207 9.05867 9.74807 9.152C9.77607 9.208 9.8134 9.236 9.86007 9.236C9.93474 9.236 9.99074 9.152 10.0281 8.984C10.0374 8.89067 10.0887 8.872 10.1821 8.928C10.2567 8.97467 10.2614 9.04 10.1961 9.124C10.1587 9.16133 10.1354 9.18933 10.1261 9.208C10.1261 9.22667 10.1401 9.24067 10.1681 9.25C10.1961 9.25933 10.2427 9.264 10.3081 9.264C10.4014 9.264 10.4574 9.25 10.4761 9.222C10.5041 9.18467 10.5181 9.11 10.5181 8.998C10.5181 8.83 10.4761 8.746 10.3921 8.746C10.3734 8.746 10.3081 8.75533 10.1961 8.774H10.0561C9.8974 8.774 9.79007 8.76 9.73407 8.732C9.64074 8.68533 9.5894 8.71333 9.58007 8.816C9.58007 8.85333 9.5754 8.872 9.56607 8.872C9.53807 8.872 9.49607 8.75533 9.44007 8.522C9.38407 8.27933 9.3514 8.08333 9.34207 7.934V7.584L10.7841 7.626C11.0641 7.63533 11.3767 7.64 11.7221 7.64C12.0394 7.64 12.1981 7.61667 12.1981 7.57C12.1981 7.50467 12.1001 7.46267 11.9041 7.444C11.7081 7.42533 11.3254 7.40667 10.7561 7.388C9.80407 7.35067 9.31874 7.32267 9.30007 7.304C9.26274 7.26667 9.19274 6.86067 9.09007 6.086C8.97807 5.29267 8.9174 4.896 8.90807 4.896C8.87074 4.896 8.4554 5.694 7.66207 7.29C6.51407 9.586 5.87007 10.8787 5.73007 11.168L5.14207 11.336C4.7594 11.448 4.52607 11.5273 4.44207 11.574C4.38607 11.602 4.15274 12.1667 3.74207 13.268C3.3314 14.36 3.1074 14.9247 3.07007 14.962C3.04207 14.99 3.01407 15.004 2.98607 15.004C2.9114 15.004 2.8274 14.9247 2.73407 14.766C2.64074 14.6167 2.56607 14.4253 2.51007 14.192L2.37007 13.618L2.58007 13.254C2.6734 13.086 2.75274 12.974 2.81807 12.918C2.8834 12.862 2.97674 12.8293 3.09807 12.82L3.40607 12.778L4.10607 11.168C4.4514 10.3747 4.8154 9.6 5.19807 8.844C5.58074 8.088 5.80474 7.696 5.87007 7.668C5.91674 7.64933 5.94007 7.59333 5.94007 7.5C5.94007 7.416 6.40207 6.47333 7.32607 4.672ZM19.8171 9.404C19.8171 9.35733 19.7798 9.32467 19.7051 9.306C19.6398 9.278 19.5698 9.27333 19.4951 9.292C19.3645 9.33867 19.3411 9.39 19.4251 9.446C19.4625 9.474 19.5185 9.488 19.5931 9.488C19.7425 9.488 19.8171 9.46 19.8171 9.404ZM18.4451 9.264C18.4451 9.24533 18.4171 9.236 18.3611 9.236C18.3051 9.236 18.2771 9.264 18.2771 9.32C18.2771 9.39467 18.3191 9.39467 18.4031 9.32C18.4311 9.30133 18.4451 9.28267 18.4451 9.264ZM22.3511 8.466L22.4351 8.018C22.4351 7.99933 22.4025 7.99 22.3371 7.99C22.2251 7.99 22.0898 8.01333 21.9311 8.06C21.7725 8.09733 21.6838 8.13467 21.6651 8.172C21.6185 8.256 21.3011 8.298 20.7131 8.298H19.8171L19.6911 8.55L19.5511 8.802H20.0131C20.2558 8.802 20.7038 8.82067 21.3571 8.858L22.2531 8.914L22.3511 8.466ZM18.4171 7.724L18.9211 7.01L20.6711 7.052C21.8938 7.08933 22.7151 7.122 23.1351 7.15L23.8351 7.206L23.7931 7.444C23.7465 7.65867 23.7091 7.88733 23.6811 8.13C23.6438 8.44733 23.5645 8.65733 23.4431 8.76C23.3125 8.86267 23.0978 9.36667 22.7991 10.272L22.3651 11.616L21.9731 11.672C21.7025 11.7093 21.5671 11.7093 21.5671 11.672C21.5671 11.6253 21.6231 11.3313 21.7351 10.79C21.8565 10.2393 21.9171 9.93133 21.9171 9.866C21.9171 9.84733 21.8798 9.838 21.8051 9.838C21.6278 9.838 21.3385 9.86133 20.9371 9.908C20.3118 9.98267 19.7191 10.034 19.1591 10.062C18.7578 10.0807 18.5058 10.104 18.4031 10.132C18.3005 10.1507 18.2258 10.2067 18.1791 10.3C18.1325 10.3933 18.0718 10.454 17.9971 10.482C17.9318 10.5007 17.7871 10.51 17.5631 10.51C17.2085 10.51 16.9985 10.5333 16.9331 10.58C16.8958 10.608 16.8771 10.6313 16.8771 10.65C16.8771 10.706 17.0171 10.734 17.2971 10.734C17.4558 10.734 17.5865 10.7293 17.6891 10.72C18.0905 10.6733 18.3005 10.5987 18.3191 10.496C18.3565 10.3933 18.4265 10.3373 18.5291 10.328C18.5758 10.3467 18.6038 10.37 18.6131 10.398C18.6131 10.426 18.4265 10.79 18.0531 11.49L17.4931 12.526L17.0171 12.708C16.7838 12.792 16.6298 12.834 16.5551 12.834C16.4991 12.834 16.4525 12.82 16.4151 12.792C16.4058 12.7827 16.3685 12.75 16.3031 12.694C16.2378 12.6473 16.1631 12.5913 16.0791 12.526C16.0045 12.47 15.9345 12.414 15.8691 12.358L15.4631 12.022L15.8971 11.392C16.1865 10.972 16.3731 10.762 16.4571 10.762C16.5038 10.762 16.5271 10.7247 16.5271 10.65C16.5271 10.5473 16.7185 10.2113 17.1011 9.642L17.7171 8.76L18.1371 8.718C18.4078 8.68067 18.5618 8.62933 18.5991 8.564C18.6178 8.51733 18.5805 8.494 18.4871 8.494L18.2911 8.508C18.0578 8.54533 17.9411 8.54533 17.9411 8.508C17.9411 8.452 18.0998 8.19067 18.4171 7.724ZM28.7896 10.188C28.8456 10.188 28.8736 10.16 28.8736 10.104C28.8736 10.048 28.8643 10.02 28.8456 10.02C28.8083 10.02 28.7756 10.0527 28.7476 10.118C28.7476 10.1553 28.7616 10.1787 28.7896 10.188ZM28.9996 7.556C28.8596 7.50933 28.3789 7.486 27.5576 7.486H27.1376C26.6429 7.486 26.3396 7.514 26.2276 7.57C26.1156 7.626 26.0549 7.77067 26.0456 8.004V8.088C26.0456 8.172 26.0596 8.228 26.0876 8.256C26.1156 8.27467 26.1763 8.29333 26.2696 8.312H26.2976C26.5123 8.312 27.0163 8.20467 27.8096 7.99C28.6123 7.766 29.0136 7.626 29.0136 7.57C29.0136 7.56067 29.0089 7.556 28.9996 7.556ZM25.4016 6.898L25.5696 6.52L26.1856 6.576C28.7523 6.78133 30.3903 6.884 31.0996 6.884C31.2489 6.884 31.4123 7.01467 31.5896 7.276C31.7576 7.528 31.8416 7.668 31.8416 7.696L29.9796 8.34C28.7383 8.75067 28.1176 8.97467 28.1176 9.012C28.1176 9.04 28.6123 9.24533 29.6016 9.628L31.0996 10.216L30.0916 11.224L29.4616 11.042C28.9669 10.8927 28.7196 10.79 28.7196 10.734C28.7196 10.7153 28.7709 10.706 28.8736 10.706C29.4896 10.6687 29.7976 10.622 29.7976 10.566C29.7976 10.5473 29.6016 10.538 29.2096 10.538C28.7803 10.538 28.5376 10.566 28.4816 10.622C28.4069 10.6967 28.3556 10.6967 28.3276 10.622C28.2996 10.566 28.2296 10.538 28.1176 10.538C28.0243 10.538 27.7583 10.454 27.3196 10.286C26.8903 10.118 26.4936 9.94533 26.1296 9.768C25.8123 9.6 25.6209 9.516 25.5556 9.516C25.5369 9.516 25.4109 9.73533 25.1776 10.174C24.9536 10.6033 24.7249 11.0373 24.4916 11.476L24.1556 12.134H24.1416C24.0949 12.134 23.9736 12.0127 23.7776 11.77C23.5816 11.5367 23.4836 11.378 23.4836 11.294C23.4836 11.1447 23.6049 10.804 23.8476 10.272C24.5196 8.86267 25.0376 7.738 25.4016 6.898ZM35.0044 8.13C35.2284 7.99 35.3777 7.92 35.4524 7.92C35.5271 7.92 35.5644 8.00867 35.5644 8.186C35.5644 8.242 35.5551 8.40067 35.5364 8.662C35.5271 8.78333 35.5224 8.93733 35.5224 9.124C35.5224 9.38533 35.5551 9.516 35.6204 9.516C35.6577 9.516 35.7044 9.488 35.7604 9.432C35.8257 9.36667 35.8211 9.31067 35.7464 9.264C35.7277 9.25467 35.7184 9.236 35.7184 9.208C35.7184 9.13333 35.9844 8.886 36.5164 8.466C36.7031 8.31667 36.8431 8.228 36.9364 8.2C37.0391 8.172 37.2351 8.158 37.5244 8.158C37.9257 8.158 38.1171 8.18133 38.0984 8.228C38.0797 8.27467 37.3844 9.12867 36.0124 10.79L33.9404 13.268L33.2964 13.59C33.0257 13.7207 32.8157 13.842 32.6664 13.954C32.5171 14.0753 32.3397 14.262 32.1344 14.514C31.8171 14.8967 31.6164 15.088 31.5324 15.088C31.4951 15.088 31.4811 15.0553 31.4904 14.99C31.4904 14.934 32.1484 14.1033 33.4644 12.498C34.7991 10.8647 35.4757 10.0293 35.4944 9.992C35.5317 9.91733 35.5037 9.88467 35.4104 9.894L35.3684 9.908H35.3124C35.1911 9.908 35.0557 9.81933 34.9064 9.642C34.7851 9.51133 34.7057 9.39933 34.6684 9.306C34.6404 9.21267 34.6264 9.05867 34.6264 8.844C34.6264 8.60133 34.6404 8.452 34.6684 8.396C34.7057 8.33067 34.8177 8.242 35.0044 8.13ZM42.1149 9.404C42.1149 9.35733 42.0775 9.32467 42.0029 9.306C41.9375 9.278 41.8675 9.27333 41.7929 9.292C41.6622 9.33867 41.6389 9.39 41.7229 9.446C41.7602 9.474 41.8162 9.488 41.8909 9.488C42.0402 9.488 42.1149 9.46 42.1149 9.404ZM40.7429 9.264C40.7429 9.24533 40.7149 9.236 40.6589 9.236C40.6029 9.236 40.5749 9.264 40.5749 9.32C40.5749 9.39467 40.6169 9.39467 40.7009 9.32C40.7289 9.30133 40.7429 9.28267 40.7429 9.264ZM44.6489 8.466L44.7329 8.018C44.7329 7.99933 44.7002 7.99 44.6349 7.99C44.5229 7.99 44.3875 8.01333 44.2289 8.06C44.0702 8.09733 43.9815 8.13467 43.9629 8.172C43.9162 8.256 43.5989 8.298 43.0109 8.298H42.1149L41.9889 8.55L41.8489 8.802H42.3109C42.5535 8.802 43.0015 8.82067 43.6549 8.858L44.5509 8.914L44.6489 8.466ZM40.7149 7.724L41.2189 7.01L42.9689 7.052C44.1915 7.08933 45.0129 7.122 45.4329 7.15L46.1329 7.206L46.0909 7.444C46.0442 7.65867 46.0069 7.88733 45.9789 8.13C45.9415 8.44733 45.8622 8.65733 45.7409 8.76C45.6102 8.86267 45.3955 9.36667 45.0969 10.272L44.6629 11.616L44.2709 11.672C44.0002 11.7093 43.8649 11.7093 43.8649 11.672C43.8649 11.6253 43.9209 11.3313 44.0329 10.79C44.1542 10.2393 44.2149 9.93133 44.2149 9.866C44.2149 9.84733 44.1775 9.838 44.1029 9.838C43.9255 9.838 43.6362 9.86133 43.2349 9.908C42.6095 9.98267 42.0169 10.034 41.4569 10.062C41.0555 10.0807 40.8035 10.104 40.7009 10.132C40.5982 10.1507 40.5235 10.2067 40.4769 10.3C40.4302 10.3933 40.3695 10.454 40.2949 10.482C40.2295 10.5007 40.0849 10.51 39.8609 10.51C39.5062 10.51 39.2962 10.5333 39.2309 10.58C39.1935 10.608 39.1749 10.6313 39.1749 10.65C39.1749 10.706 39.3149 10.734 39.5949 10.734C39.7535 10.734 39.8842 10.7293 39.9869 10.72C40.3882 10.6733 40.5982 10.5987 40.6169 10.496C40.6542 10.3933 40.7242 10.3373 40.8269 10.328C40.8735 10.3467 40.9015 10.37 40.9109 10.398C40.9109 10.426 40.7242 10.79 40.3509 11.49L39.7909 12.526L39.3149 12.708C39.0815 12.792 38.9275 12.834 38.8529 12.834C38.7969 12.834 38.7502 12.82 38.7129 12.792C38.7035 12.7827 38.6662 12.75 38.6009 12.694C38.5355 12.6473 38.4609 12.5913 38.3769 12.526C38.3022 12.47 38.2322 12.414 38.1669 12.358L37.7609 12.022L38.1949 11.392C38.4842 10.972 38.6709 10.762 38.7549 10.762C38.8015 10.762 38.8249 10.7247 38.8249 10.65C38.8249 10.5473 39.0162 10.2113 39.3989 9.642L40.0149 8.76L40.4349 8.718C40.7055 8.68067 40.8595 8.62933 40.8969 8.564C40.9155 8.51733 40.8782 8.494 40.7849 8.494L40.5889 8.508C40.3555 8.54533 40.2389 8.54533 40.2389 8.508C40.2389 8.452 40.3975 8.19067 40.7149 7.724ZM51.1433 10.622C51.1713 10.622 51.1853 10.608 51.1853 10.58C51.1853 10.552 51.1713 10.538 51.1433 10.538C51.1153 10.538 51.1013 10.552 51.1013 10.58C51.1013 10.608 51.1153 10.622 51.1433 10.622ZM51.0733 9.488L51.9133 7.99H52.6133C53.0987 7.99 53.3413 8.00867 53.3413 8.046C53.3413 8.11133 52.8933 8.96533 51.9973 10.608C51.1013 12.2413 50.6067 13.114 50.5133 13.226C50.4387 13.3007 50.238 13.338 49.9113 13.338C49.6687 13.338 49.5193 13.3193 49.4633 13.282C49.4073 13.254 49.3233 13.1513 49.2113 12.974C49.062 12.7033 48.9733 12.442 48.9453 12.19C48.9267 12.0313 48.8893 11.798 48.8333 11.49L48.7913 11.21H49.3373C50.0653 11.21 50.4853 11.1167 50.5973 10.93C50.6533 10.8367 50.6767 10.79 50.6673 10.79C50.658 10.7807 50.6067 10.818 50.5133 10.902C50.3827 11.0233 50.308 11.0607 50.2893 11.014C50.2893 10.9113 50.5507 10.4027 51.0733 9.488ZM48.3713 8.298C48.6793 7.74733 48.8427 7.472 48.8613 7.472C48.8893 7.472 48.894 7.56533 48.8753 7.752C48.8753 7.77067 48.8707 7.794 48.8613 7.822C48.8613 7.85 48.8613 7.86867 48.8613 7.878C48.8613 7.94333 48.8753 7.98533 48.9033 8.004C48.9313 8.02267 48.992 8.04133 49.0853 8.06C49.2253 8.07867 49.314 8.13467 49.3513 8.228C49.846 9.936 50.0933 10.8273 50.0933 10.902C50.0933 10.93 50.0793 10.9533 50.0513 10.972C50.0233 10.9907 49.9673 11.0047 49.8833 11.014C49.7993 11.0233 49.6827 11.028 49.5333 11.028C49.3933 11.0373 49.1973 11.042 48.9453 11.042C48.18 11.042 47.7833 11.07 47.7553 11.126C47.7367 11.154 47.7647 11.1773 47.8393 11.196C47.9047 11.2053 47.9887 11.21 48.0913 11.21C48.3433 11.21 48.4693 11.2287 48.4693 11.266C48.4693 11.3127 48.292 11.616 47.9373 12.176L47.4053 13.03L46.9433 13.128C46.4953 13.2307 46.1827 13.282 46.0053 13.282C45.856 13.282 45.7813 13.24 45.7813 13.156C45.7813 12.9973 45.8607 12.7827 46.0193 12.512C46.1407 12.288 46.234 12.1387 46.2993 12.064C46.374 11.9893 46.4767 11.9333 46.6073 11.896H46.6213L46.6493 11.882L46.8173 11.826C46.808 11.826 46.7613 11.8213 46.6773 11.812H46.4393L46.5793 11.504C46.6447 11.364 46.7053 11.28 46.7613 11.252C46.8173 11.224 46.9573 11.21 47.1813 11.21C47.48 11.21 47.6293 11.1773 47.6293 11.112C47.6293 11.0653 47.6107 11.0513 47.5733 11.07C47.536 11.098 47.4053 11.0933 47.1813 11.056L46.8733 11L47.3913 10.062C47.494 9.87533 47.662 9.56733 47.8953 9.138C48.138 8.70867 48.2967 8.42867 48.3713 8.298ZM53.4708 8.55C53.5362 8.58733 53.5922 8.58733 53.6388 8.55C53.6575 8.522 53.6435 8.508 53.5968 8.508C53.5782 8.508 53.5548 8.508 53.5268 8.508C53.4522 8.508 53.4242 8.51733 53.4428 8.536C53.4428 8.536 53.4522 8.54067 53.4708 8.55ZM57.1668 7.794C57.1202 7.77533 57.0688 7.76133 57.0128 7.752C56.9102 7.752 56.8635 7.76133 56.8728 7.78C56.8728 7.78 56.8868 7.78467 56.9148 7.794C57.0082 7.81267 57.0922 7.81267 57.1668 7.794ZM56.5368 7.738C56.4622 7.738 56.4435 7.75667 56.4808 7.794C56.5182 7.83133 56.5555 7.83133 56.5928 7.794C56.5928 7.766 56.5742 7.74733 56.5368 7.738ZM55.9488 7.822C56.1542 7.794 56.2568 7.77533 56.2568 7.766C56.2568 7.75667 56.0655 7.74733 55.6828 7.738C55.1788 7.738 54.9268 7.766 54.9268 7.822C54.9268 7.86867 55.0155 7.892 55.1928 7.892C55.4168 7.892 55.6688 7.86867 55.9488 7.822ZM60.6248 4.434C63.4435 3.01533 64.8715 2.306 64.9088 2.306C64.9275 2.306 64.9368 2.348 64.9368 2.432C64.9368 2.516 64.8062 2.656 64.5448 2.852C64.2835 3.048 64.0735 3.27667 63.9148 3.538C63.8122 3.69667 63.6862 3.82733 63.5368 3.93C63.3875 4.03267 63.0888 4.20067 62.6408 4.434C61.9502 4.77 61.5162 5.01733 61.3388 5.176C61.2175 5.29733 60.5595 5.68 59.3648 6.324C58.2168 6.93067 57.6428 7.24333 57.6428 7.262C57.6428 7.28067 57.9835 7.49533 58.6648 7.906C59.3462 8.31667 59.6868 8.55467 59.6868 8.62C59.6868 8.68533 59.6215 8.73667 59.4908 8.774C59.4162 8.79267 59.3742 8.816 59.3648 8.844C59.3648 8.86267 59.3835 8.89533 59.4208 8.942C59.4955 9.03533 59.6122 9.11467 59.7708 9.18C59.9948 9.28267 60.1068 9.51133 60.1068 9.866C60.1068 9.88467 60.1022 9.922 60.0928 9.978C60.0928 10.0247 60.0928 10.062 60.0928 10.09C60.0835 10.2113 60.0835 10.2907 60.0928 10.328C60.1115 10.3653 60.1488 10.384 60.2048 10.384C60.2795 10.384 61.2782 10.8927 63.2008 11.91C65.1235 12.9367 66.1595 13.45 66.3088 13.45H66.3228L66.3368 13.436C66.3555 13.436 66.3695 13.436 66.3788 13.436C66.5188 13.436 66.7008 13.4873 66.9248 13.59C67.1208 13.674 67.2515 13.744 67.3168 13.8C67.3915 13.8653 67.4475 13.9633 67.4848 14.094C67.5408 14.29 67.5688 14.4393 67.5688 14.542C67.5688 14.626 67.5502 14.668 67.5128 14.668H67.4988C67.2748 14.556 66.1408 13.9447 64.0968 12.834C62.0622 11.7327 60.1068 10.678 58.2308 9.67C56.3642 8.662 55.4215 8.16267 55.4028 8.172C55.3842 8.19067 55.1042 8.65733 54.5628 9.572C54.0215 10.496 53.7275 10.958 53.6808 10.958C53.6622 10.958 53.5408 10.8833 53.3168 10.734C53.1022 10.5847 52.9948 10.5007 52.9948 10.482C52.9948 10.4727 53.0042 10.4447 53.0228 10.398C53.0415 10.3513 53.0648 10.2813 53.0928 10.188C53.1302 10.0947 53.1628 10.0107 53.1908 9.936C53.3122 9.656 53.3728 9.474 53.3728 9.39C53.3728 9.34333 53.3402 9.23133 53.2748 9.054L53.1348 8.69L54.2548 6.59C55.0108 5.19933 55.4495 4.504 55.5708 4.504C55.5988 4.504 55.6128 4.53667 55.6128 4.602C55.6128 4.64867 55.7202 4.672 55.9348 4.672C56.0935 4.672 56.2242 4.66733 56.3268 4.658C56.4482 4.64867 56.5882 4.644 56.7468 4.644C56.9708 4.644 57.0828 4.686 57.0828 4.77C57.0828 4.854 56.9522 5.15733 56.6908 5.68C56.6255 5.82 56.5742 5.92733 56.5368 6.002C56.4995 6.07667 56.4575 6.16067 56.4108 6.254C56.3735 6.34733 56.3455 6.41733 56.3268 6.464C56.3175 6.50133 56.3175 6.52 56.3268 6.52C56.4295 6.52 57.8622 5.82467 60.6248 4.434ZM69.5607 11.63C69.5327 11.574 69.472 11.546 69.3787 11.546C69.2667 11.546 69.2573 11.588 69.3507 11.672L69.4767 11.728C69.514 11.728 69.542 11.714 69.5607 11.686C69.5793 11.6673 69.5793 11.6487 69.5607 11.63ZM73.7607 5.12C73.7607 5.04533 73.854 4.938 74.0407 4.798C74.2273 4.658 74.3627 4.588 74.4467 4.588C74.5213 4.588 74.5587 4.60667 74.5587 4.644C74.5587 4.68133 74.5027 4.80733 74.3907 5.022C74.2507 5.302 74.1433 5.442 74.0687 5.442C74.0127 5.442 73.686 5.78267 73.0887 6.464C72.5007 7.136 72.1227 7.60267 71.9547 7.864C71.8053 8.10667 71.698 8.37267 71.6327 8.662C71.5673 8.97 71.2313 9.61867 70.6247 10.608C69.318 12.736 68.6553 13.828 68.6367 13.884C68.6273 13.912 68.6133 13.926 68.5947 13.926C68.5013 13.926 68.3847 13.7207 68.2447 13.31C68.1607 13.0673 67.988 12.33 67.7267 11.098C67.484 9.93133 67.3207 9.348 67.2367 9.348C67.162 9.348 67.218 9.24067 67.4047 9.026C67.6007 8.82067 67.7267 8.65733 67.7827 8.536C67.848 8.44267 67.9367 8.41467 68.0487 8.452C68.1233 8.48 68.1793 8.55933 68.2167 8.69C68.2633 8.82067 68.3287 9.10533 68.4127 9.544C68.4873 10.0107 68.5853 10.5053 68.7067 11.028L68.7907 11.504L68.9867 11.252C69.0613 11.1587 69.4907 10.538 70.2747 9.39C70.9933 8.33533 71.474 7.72867 71.7167 7.57C71.8753 7.46733 72.2533 7.05667 72.8507 6.338C73.4573 5.61933 73.7607 5.21333 73.7607 5.12ZM78.5717 9.404C78.5717 9.35733 78.5344 9.32467 78.4597 9.306C78.3944 9.278 78.3244 9.27333 78.2497 9.292C78.1191 9.33867 78.0957 9.39 78.1797 9.446C78.2171 9.474 78.2731 9.488 78.3477 9.488C78.4971 9.488 78.5717 9.46 78.5717 9.404ZM77.1997 9.264C77.1997 9.24533 77.1717 9.236 77.1157 9.236C77.0597 9.236 77.0317 9.264 77.0317 9.32C77.0317 9.39467 77.0737 9.39467 77.1577 9.32C77.1857 9.30133 77.1997 9.28267 77.1997 9.264ZM81.1057 8.466L81.1897 8.018C81.1897 7.99933 81.1571 7.99 81.0917 7.99C80.9797 7.99 80.8444 8.01333 80.6857 8.06C80.5271 8.09733 80.4384 8.13467 80.4197 8.172C80.3731 8.256 80.0557 8.298 79.4677 8.298H78.5717L78.4457 8.55L78.3057 8.802H78.7677C79.0104 8.802 79.4584 8.82067 80.1117 8.858L81.0077 8.914L81.1057 8.466ZM77.1717 7.724L77.6757 7.01L79.4257 7.052C80.6484 7.08933 81.4697 7.122 81.8897 7.15L82.5897 7.206L82.5477 7.444C82.5011 7.65867 82.4637 7.88733 82.4357 8.13C82.3984 8.44733 82.3191 8.65733 82.1977 8.76C82.0671 8.86267 81.8524 9.36667 81.5537 10.272L81.1197 11.616L80.7277 11.672C80.4571 11.7093 80.3217 11.7093 80.3217 11.672C80.3217 11.6253 80.3777 11.3313 80.4897 10.79C80.6111 10.2393 80.6717 9.93133 80.6717 9.866C80.6717 9.84733 80.6344 9.838 80.5597 9.838C80.3824 9.838 80.0931 9.86133 79.6917 9.908C79.0664 9.98267 78.4737 10.034 77.9137 10.062C77.5124 10.0807 77.2604 10.104 77.1577 10.132C77.0551 10.1507 76.9804 10.2067 76.9337 10.3C76.8871 10.3933 76.8264 10.454 76.7517 10.482C76.6864 10.5007 76.5417 10.51 76.3177 10.51C75.9631 10.51 75.7531 10.5333 75.6877 10.58C75.6504 10.608 75.6317 10.6313 75.6317 10.65C75.6317 10.706 75.7717 10.734 76.0517 10.734C76.2104 10.734 76.3411 10.7293 76.4437 10.72C76.8451 10.6733 77.0551 10.5987 77.0737 10.496C77.1111 10.3933 77.1811 10.3373 77.2837 10.328C77.3304 10.3467 77.3584 10.37 77.3677 10.398C77.3677 10.426 77.1811 10.79 76.8077 11.49L76.2477 12.526L75.7717 12.708C75.5384 12.792 75.3844 12.834 75.3097 12.834C75.2537 12.834 75.2071 12.82 75.1697 12.792C75.1604 12.7827 75.1231 12.75 75.0577 12.694C74.9924 12.6473 74.9177 12.5913 74.8337 12.526C74.7591 12.47 74.6891 12.414 74.6237 12.358L74.2177 12.022L74.6517 11.392C74.9411 10.972 75.1277 10.762 75.2117 10.762C75.2584 10.762 75.2817 10.7247 75.2817 10.65C75.2817 10.5473 75.4731 10.2113 75.8557 9.642L76.4717 8.76L76.8917 8.718C77.1624 8.68067 77.3164 8.62933 77.3537 8.564C77.3724 8.51733 77.3351 8.494 77.2417 8.494L77.0457 8.508C76.8124 8.54533 76.6957 8.54533 76.6957 8.508C76.6957 8.452 76.8544 8.19067 77.1717 7.724ZM85.4582 7.976C86.1022 7.70533 86.4615 7.57 86.5362 7.57C86.5922 7.57 86.6622 7.654 86.7462 7.822C86.8302 7.98067 86.8722 8.116 86.8722 8.228C86.8722 8.24667 86.8675 8.27 86.8582 8.298C86.8582 8.31667 86.8582 8.33533 86.8582 8.354C86.8582 8.53133 86.9422 8.82533 87.1102 9.236C87.2782 9.64667 87.4089 9.866 87.5022 9.894C87.6142 9.922 87.6702 10.0433 87.6702 10.258C87.6702 10.3887 87.6329 10.454 87.5582 10.454C87.4835 10.454 87.4135 10.4167 87.3482 10.342C87.2829 10.2673 87.2502 10.188 87.2502 10.104C87.2502 10.0293 87.1755 9.91733 87.0262 9.768C86.8862 9.61867 86.7602 9.52533 86.6482 9.488C86.5362 9.44133 86.4102 9.26867 86.2702 8.97C86.2329 8.886 86.1909 8.80667 86.1442 8.732C86.1069 8.65733 86.0742 8.60133 86.0462 8.564C86.0182 8.51733 85.9995 8.49867 85.9902 8.508C84.9822 9.012 84.4642 9.264 84.4362 9.264C84.3895 9.264 84.2542 9.34333 84.0302 9.502C83.8062 9.65133 83.6895 9.74467 83.6802 9.782C83.6802 9.80067 84.1095 9.992 84.9682 10.356C85.5095 10.58 85.8875 10.7247 86.1022 10.79C86.3262 10.846 86.5502 10.874 86.7742 10.874H87.3062L87.3622 11.546C87.3809 11.826 87.3902 12.0033 87.3902 12.078C87.3902 12.4513 87.3015 12.6567 87.1242 12.694C86.4709 12.7873 85.8129 12.876 85.1502 12.96C84.2169 13.0813 83.6615 13.142 83.4842 13.142C83.3442 13.142 83.2089 13.1047 83.0782 13.03C82.9009 12.9273 82.7609 12.75 82.6582 12.498C82.5835 12.2647 82.4902 12.106 82.3782 12.022C82.2849 11.9567 82.2382 11.8587 82.2382 11.728C82.2382 11.6627 82.2475 11.616 82.2662 11.588C82.2849 11.5693 82.3315 11.56 82.4062 11.56C82.4155 11.56 82.5322 11.5693 82.7562 11.588C83.0549 11.616 83.2929 11.63 83.4702 11.63C83.6102 11.63 83.6802 11.6673 83.6802 11.742C83.6802 11.798 83.6242 11.84 83.5122 11.868C83.3349 11.9147 83.3115 12.0033 83.4422 12.134C83.5169 12.2087 83.5215 12.2927 83.4562 12.386C83.4095 12.4607 83.3862 12.5167 83.3862 12.554C83.3862 12.6473 83.4889 12.694 83.6942 12.694C83.8435 12.694 84.0675 12.666 84.3662 12.61C84.4782 12.5913 84.6229 12.568 84.8002 12.54C84.9775 12.512 85.1222 12.484 85.2342 12.456C85.3555 12.4373 85.4395 12.428 85.4862 12.428C85.6449 12.4093 85.8082 12.3253 85.9762 12.176C86.1442 12.0267 86.2282 11.8913 86.2282 11.77C86.2282 11.686 86.1489 11.5973 85.9902 11.504C85.8315 11.42 85.6729 11.378 85.5142 11.378C85.0289 11.378 84.3709 11.2193 83.5402 10.902C83.1855 10.7713 82.9662 10.678 82.8822 10.622C82.7982 10.566 82.7422 10.4727 82.7142 10.342C82.6862 10.1647 82.7049 10.0573 82.7702 10.02C82.8449 9.97333 82.8075 9.894 82.6582 9.782L82.4482 9.6L82.7002 9.39C83.1109 9.04467 84.0302 8.57333 85.4582 7.976ZM92.6676 10.622C92.6956 10.622 92.7096 10.608 92.7096 10.58C92.7096 10.552 92.6956 10.538 92.6676 10.538C92.6396 10.538 92.6256 10.552 92.6256 10.58C92.6256 10.608 92.6396 10.622 92.6676 10.622ZM92.5976 9.488L93.4376 7.99H94.1376C94.6229 7.99 94.8656 8.00867 94.8656 8.046C94.8656 8.11133 94.4176 8.96533 93.5216 10.608C92.6256 12.2413 92.1309 13.114 92.0376 13.226C91.9629 13.3007 91.7622 13.338 91.4356 13.338C91.1929 13.338 91.0436 13.3193 90.9876 13.282C90.9316 13.254 90.8476 13.1513 90.7356 12.974C90.5862 12.7033 90.4976 12.442 90.4696 12.19C90.4509 12.0313 90.4136 11.798 90.3576 11.49L90.3156 11.21H90.8616C91.5896 11.21 92.0096 11.1167 92.1216 10.93C92.1776 10.8367 92.2009 10.79 92.1916 10.79C92.1822 10.7807 92.1309 10.818 92.0376 10.902C91.9069 11.0233 91.8322 11.0607 91.8136 11.014C91.8136 10.9113 92.0749 10.4027 92.5976 9.488ZM89.8956 8.298C90.2036 7.74733 90.3669 7.472 90.3856 7.472C90.4136 7.472 90.4182 7.56533 90.3996 7.752C90.3996 7.77067 90.3949 7.794 90.3856 7.822C90.3856 7.85 90.3856 7.86867 90.3856 7.878C90.3856 7.94333 90.3996 7.98533 90.4276 8.004C90.4556 8.02267 90.5162 8.04133 90.6096 8.06C90.7496 8.07867 90.8382 8.13467 90.8756 8.228C91.3702 9.936 91.6176 10.8273 91.6176 10.902C91.6176 10.93 91.6036 10.9533 91.5756 10.972C91.5476 10.9907 91.4916 11.0047 91.4076 11.014C91.3236 11.0233 91.2069 11.028 91.0576 11.028C90.9176 11.0373 90.7216 11.042 90.4696 11.042C89.7042 11.042 89.3076 11.07 89.2796 11.126C89.2609 11.154 89.2889 11.1773 89.3636 11.196C89.4289 11.2053 89.5129 11.21 89.6156 11.21C89.8676 11.21 89.9936 11.2287 89.9936 11.266C89.9936 11.3127 89.8162 11.616 89.4616 12.176L88.9296 13.03L88.4676 13.128C88.0196 13.2307 87.7069 13.282 87.5296 13.282C87.3802 13.282 87.3056 13.24 87.3056 13.156C87.3056 12.9973 87.3849 12.7827 87.5436 12.512C87.6649 12.288 87.7582 12.1387 87.8236 12.064C87.8982 11.9893 88.0009 11.9333 88.1316 11.896H88.1456L88.1736 11.882L88.3416 11.826C88.3322 11.826 88.2856 11.8213 88.2016 11.812H87.9636L88.1036 11.504C88.1689 11.364 88.2296 11.28 88.2856 11.252C88.3416 11.224 88.4816 11.21 88.7056 11.21C89.0042 11.21 89.1536 11.1773 89.1536 11.112C89.1536 11.0653 89.1349 11.0513 89.0976 11.07C89.0602 11.098 88.9296 11.0933 88.7056 11.056L88.3976 11L88.9156 10.062C89.0182 9.87533 89.1862 9.56733 89.4196 9.138C89.6622 8.70867 89.8209 8.42867 89.8956 8.298ZM97.1231 12.904C97.2071 12.904 97.2071 12.8573 97.1231 12.764C97.1044 12.736 97.0857 12.722 97.0671 12.722C97.0484 12.722 97.0391 12.75 97.0391 12.806C97.0391 12.8713 97.0671 12.904 97.1231 12.904ZM98.2711 6.996C98.3084 6.95867 98.4204 6.94 98.6071 6.94C99.0551 6.94 99.3491 7.00067 99.4891 7.122C99.6197 7.22467 99.9744 7.28067 100.553 7.29L101.463 7.318C101.202 7.66333 100.936 8.05067 100.665 8.48C100.534 8.47067 100.334 8.452 100.063 8.424C99.8017 8.396 99.6011 8.37733 99.4611 8.368L99.1391 10.062C98.9711 10.986 98.8451 11.616 98.7611 11.952L98.7191 12.162C98.8591 12.1433 99.0737 12.1247 99.3631 12.106C99.6617 12.0873 99.8857 12.0687 100.035 12.05L99.9791 12.344C99.9604 12.4373 99.9511 12.4933 99.9511 12.512C99.9511 12.5867 100.03 12.6427 100.189 12.68C100.357 12.7173 100.441 12.806 100.441 12.946C100.441 13.086 100.422 13.1653 100.385 13.184C100.338 13.212 99.4984 13.2447 97.8651 13.282L95.4151 13.338V12.82C95.5457 12.82 95.7371 12.8107 95.9891 12.792C96.2504 12.7733 96.4417 12.764 96.5631 12.764L95.9471 12.75L95.3311 12.722L95.3591 12.4C95.3684 12.232 95.3871 12.1293 95.4151 12.092C95.4524 12.064 95.5737 12.036 95.7791 12.008C95.8351 11.9987 95.9191 11.994 96.0311 11.994C96.2271 11.994 96.3811 12.0127 96.4931 12.05C96.6051 12.0873 96.8244 12.106 97.1511 12.106C97.5057 12.106 97.7064 12.0827 97.7531 12.036C97.7811 12.008 97.8884 11.4153 98.0751 10.258C98.2617 9.10067 98.3551 8.45667 98.3551 8.326C98.3551 8.30733 98.1404 8.26067 97.7111 8.186C97.4217 8.13933 97.2351 8.09733 97.1511 8.06C97.0671 8.01333 96.9784 7.91533 96.8851 7.766L96.6751 7.444L95.8771 7.5C95.7557 7.50933 95.6017 7.514 95.4151 7.514C95.1444 7.514 94.9391 7.486 94.7991 7.43L94.5191 7.318L95.0791 7.248C95.5831 7.20133 96.1944 7.164 96.9131 7.136C97.7717 7.09867 98.2244 7.052 98.2711 6.996ZM104.03 9.18C104.058 9.18 104.072 9.166 104.072 9.138C104.072 9.11 104.058 9.096 104.03 9.096C104.002 9.096 103.988 9.11 103.988 9.138C103.988 9.166 104.002 9.18 104.03 9.18ZM105.052 8.074C105.08 8.074 105.094 8.06 105.094 8.032C105.094 8.004 105.08 7.99 105.052 7.99C105.024 7.99 105.01 8.004 105.01 8.032C105.01 8.06 105.024 8.074 105.052 8.074ZM101.104 7.29C101.104 7.18733 101.169 7.136 101.3 7.136C101.375 7.136 101.44 7.164 101.496 7.22C101.543 7.26667 102.014 7.32267 102.91 7.388C103.535 7.43467 103.904 7.458 104.016 7.458C104.212 7.458 104.352 7.43 104.436 7.374C104.539 7.318 104.66 7.29 104.8 7.29C105.052 7.29 105.178 7.34133 105.178 7.444C105.178 7.472 105.197 7.5 105.234 7.528C105.271 7.54667 105.351 7.56533 105.472 7.584C105.593 7.60267 105.766 7.626 105.99 7.654C106.214 7.67267 106.513 7.696 106.886 7.724C107.586 7.79867 107.997 7.86867 108.118 7.934C108.351 8.02733 108.622 8.088 108.93 8.116C109.294 8.16267 109.476 8.20933 109.476 8.256C109.476 8.34933 109.355 8.396 109.112 8.396C108.953 8.396 108.547 8.34933 107.894 8.256L106.76 8.088L106.424 8.256C106.237 8.35867 105.985 8.41 105.668 8.41H105.472H105.22C104.949 8.41 104.8 8.424 104.772 8.452C104.716 8.52667 104.343 9.33867 103.652 10.888C102.943 12.4653 102.555 13.254 102.49 13.254C102.359 13.254 102.294 13.1233 102.294 12.862C102.294 12.6567 102.303 12.4793 102.322 12.33C102.378 11.8633 102.443 11.63 102.518 11.63C102.602 11.63 102.667 11.5833 102.714 11.49C102.761 11.3967 102.971 10.8507 103.344 9.852C103.717 8.85333 103.904 8.33533 103.904 8.298C103.904 8.26067 103.787 8.242 103.554 8.242C103.199 8.23267 102.789 8.186 102.322 8.102C101.865 8.018 101.589 7.934 101.496 7.85C101.244 7.626 101.113 7.43933 101.104 7.29ZM112.358 7.976C113.002 7.70533 113.362 7.57 113.436 7.57C113.492 7.57 113.562 7.654 113.646 7.822C113.73 7.98067 113.772 8.116 113.772 8.228C113.772 8.24667 113.768 8.27 113.758 8.298C113.758 8.31667 113.758 8.33533 113.758 8.354C113.758 8.53133 113.842 8.82533 114.01 9.236C114.178 9.64667 114.309 9.866 114.402 9.894C114.514 9.922 114.57 10.0433 114.57 10.258C114.57 10.3887 114.533 10.454 114.458 10.454C114.384 10.454 114.314 10.4167 114.248 10.342C114.183 10.2673 114.15 10.188 114.15 10.104C114.15 10.0293 114.076 9.91733 113.926 9.768C113.786 9.61867 113.66 9.52533 113.548 9.488C113.436 9.44133 113.31 9.26867 113.17 8.97C113.133 8.886 113.091 8.80667 113.044 8.732C113.007 8.65733 112.974 8.60133 112.946 8.564C112.918 8.51733 112.9 8.49867 112.89 8.508C111.882 9.012 111.364 9.264 111.336 9.264C111.29 9.264 111.154 9.34333 110.93 9.502C110.706 9.65133 110.59 9.74467 110.58 9.782C110.58 9.80067 111.01 9.992 111.868 10.356C112.41 10.58 112.788 10.7247 113.002 10.79C113.226 10.846 113.45 10.874 113.674 10.874H114.206L114.262 11.546C114.281 11.826 114.29 12.0033 114.29 12.078C114.29 12.4513 114.202 12.6567 114.024 12.694C113.371 12.7873 112.713 12.876 112.05 12.96C111.117 13.0813 110.562 13.142 110.384 13.142C110.244 13.142 110.109 13.1047 109.978 13.03C109.801 12.9273 109.661 12.75 109.558 12.498C109.484 12.2647 109.39 12.106 109.278 12.022C109.185 11.9567 109.138 11.8587 109.138 11.728C109.138 11.6627 109.148 11.616 109.166 11.588C109.185 11.5693 109.232 11.56 109.306 11.56C109.316 11.56 109.432 11.5693 109.656 11.588C109.955 11.616 110.193 11.63 110.37 11.63C110.51 11.63 110.58 11.6673 110.58 11.742C110.58 11.798 110.524 11.84 110.412 11.868C110.235 11.9147 110.212 12.0033 110.342 12.134C110.417 12.2087 110.422 12.2927 110.356 12.386C110.31 12.4607 110.286 12.5167 110.286 12.554C110.286 12.6473 110.389 12.694 110.594 12.694C110.744 12.694 110.968 12.666 111.266 12.61C111.378 12.5913 111.523 12.568 111.7 12.54C111.878 12.512 112.022 12.484 112.134 12.456C112.256 12.4373 112.34 12.428 112.386 12.428C112.545 12.4093 112.708 12.3253 112.876 12.176C113.044 12.0267 113.128 11.8913 113.128 11.77C113.128 11.686 113.049 11.5973 112.89 11.504C112.732 11.42 112.573 11.378 112.414 11.378C111.929 11.378 111.271 11.2193 110.44 10.902C110.086 10.7713 109.866 10.678 109.782 10.622C109.698 10.566 109.642 10.4727 109.614 10.342C109.586 10.1647 109.605 10.0573 109.67 10.02C109.745 9.97333 109.708 9.894 109.558 9.782L109.348 9.6L109.6 9.39C110.011 9.04467 110.93 8.57333 112.358 7.976ZM115.9 8.928C115.9 8.9 115.825 8.886 115.676 8.886C115.564 8.89533 115.508 8.92333 115.508 8.97C115.536 9.00733 115.606 9.02133 115.718 9.012C115.839 8.99333 115.9 8.96533 115.9 8.928ZM119.26 5.106C119.334 4.91933 119.423 4.826 119.526 4.826C119.572 4.826 119.596 4.86333 119.596 4.938C119.596 5.05 119.442 5.736 119.134 6.996L118.686 8.9L118.854 9.082C118.938 9.166 118.98 9.264 118.98 9.376C118.98 9.53467 118.891 9.684 118.714 9.824C118.602 9.91733 118.429 10.4167 118.196 11.322C118.158 11.462 118.121 11.6067 118.084 11.756C118.046 11.9053 118.014 12.036 117.986 12.148C117.958 12.2693 117.93 12.3767 117.902 12.47C117.883 12.5633 117.864 12.638 117.846 12.694C117.827 12.75 117.818 12.7827 117.818 12.792C117.799 12.82 117.771 12.834 117.734 12.834C117.65 12.834 117.542 12.792 117.412 12.708C117.29 12.624 117.206 12.5353 117.16 12.442C117.122 12.3673 117.104 12.302 117.104 12.246C117.104 12.1247 117.197 11.6347 117.384 10.776C117.533 10.0947 117.608 9.71667 117.608 9.642C117.608 9.59533 117.351 9.572 116.838 9.572H116.082L115.928 10.062C115.629 11.154 115.461 11.7653 115.424 11.896C115.377 11.9987 115.256 12.106 115.06 12.218C114.826 12.33 114.677 12.512 114.612 12.764C114.574 12.904 114.509 13.044 114.416 13.184C114.332 13.3333 114.266 13.408 114.22 13.408C114.201 13.408 114.192 13.3893 114.192 13.352C114.192 13.2587 114.35 12.456 114.668 10.944C114.994 9.42267 115.172 8.65267 115.2 8.634C115.237 8.59667 115.256 8.54067 115.256 8.466C115.256 8.37267 115.354 8.312 115.55 8.284L115.858 8.228L115.578 8.214C115.503 8.20467 115.452 8.2 115.424 8.2C115.396 8.19067 115.368 8.172 115.34 8.144C115.321 8.116 115.312 8.074 115.312 8.018C115.312 7.934 115.349 7.72867 115.424 7.402C115.508 7.066 115.55 6.75333 115.55 6.464C115.568 6.128 115.606 5.87133 115.662 5.694C115.708 5.54467 115.755 5.44667 115.802 5.4C115.858 5.35333 115.96 5.316 116.11 5.288C116.259 5.26933 116.436 5.232 116.642 5.176C116.67 5.16667 116.698 5.162 116.726 5.162C116.8 5.162 116.838 5.29267 116.838 5.554C116.838 5.862 116.74 6.464 116.544 7.36C116.338 8.30267 116.236 8.79267 116.236 8.83C116.236 8.858 116.441 8.872 116.852 8.872H117.104L117.972 8.844L118.364 7.332C118.616 6.352 118.807 5.78733 118.938 5.638C119.078 5.47933 119.185 5.302 119.26 5.106ZM123.613 9.404C123.613 9.35733 123.576 9.32467 123.501 9.306C123.436 9.278 123.366 9.27333 123.291 9.292C123.161 9.33867 123.137 9.39 123.221 9.446C123.259 9.474 123.315 9.488 123.389 9.488C123.539 9.488 123.613 9.46 123.613 9.404ZM122.241 9.264C122.241 9.24533 122.213 9.236 122.157 9.236C122.101 9.236 122.073 9.264 122.073 9.32C122.073 9.39467 122.115 9.39467 122.199 9.32C122.227 9.30133 122.241 9.28267 122.241 9.264ZM126.147 8.466L126.231 8.018C126.231 7.99933 126.199 7.99 126.133 7.99C126.021 7.99 125.886 8.01333 125.727 8.06C125.569 8.09733 125.48 8.13467 125.461 8.172C125.415 8.256 125.097 8.298 124.509 8.298H123.613L123.487 8.55L123.347 8.802H123.809C124.052 8.802 124.5 8.82067 125.153 8.858L126.049 8.914L126.147 8.466ZM122.213 7.724L122.717 7.01L124.467 7.052C125.69 7.08933 126.511 7.122 126.931 7.15L127.631 7.206L127.589 7.444C127.543 7.65867 127.505 7.88733 127.477 8.13C127.44 8.44733 127.361 8.65733 127.239 8.76C127.109 8.86267 126.894 9.36667 126.595 10.272L126.161 11.616L125.769 11.672C125.499 11.7093 125.363 11.7093 125.363 11.672C125.363 11.6253 125.419 11.3313 125.531 10.79C125.653 10.2393 125.713 9.93133 125.713 9.866C125.713 9.84733 125.676 9.838 125.601 9.838C125.424 9.838 125.135 9.86133 124.733 9.908C124.108 9.98267 123.515 10.034 122.955 10.062C122.554 10.0807 122.302 10.104 122.199 10.132C122.097 10.1507 122.022 10.2067 121.975 10.3C121.929 10.3933 121.868 10.454 121.793 10.482C121.728 10.5007 121.583 10.51 121.359 10.51C121.005 10.51 120.795 10.5333 120.729 10.58C120.692 10.608 120.673 10.6313 120.673 10.65C120.673 10.706 120.813 10.734 121.093 10.734C121.252 10.734 121.383 10.7293 121.485 10.72C121.887 10.6733 122.097 10.5987 122.115 10.496C122.153 10.3933 122.223 10.3373 122.325 10.328C122.372 10.3467 122.4 10.37 122.409 10.398C122.409 10.426 122.223 10.79 121.849 11.49L121.289 12.526L120.813 12.708C120.58 12.792 120.426 12.834 120.351 12.834C120.295 12.834 120.249 12.82 120.211 12.792C120.202 12.7827 120.165 12.75 120.099 12.694C120.034 12.6473 119.959 12.5913 119.875 12.526C119.801 12.47 119.731 12.414 119.665 12.358L119.259 12.022L119.693 11.392C119.983 10.972 120.169 10.762 120.253 10.762C120.3 10.762 120.323 10.7247 120.323 10.65C120.323 10.5473 120.515 10.2113 120.897 9.642L121.513 8.76L121.933 8.718C122.204 8.68067 122.358 8.62933 122.395 8.564C122.414 8.51733 122.377 8.494 122.283 8.494L122.087 8.508C121.854 8.54533 121.737 8.54533 121.737 8.508C121.737 8.452 121.896 8.19067 122.213 7.724Z" fill="#00F0FF"/>
<path d="M6.99007 6.388C6.96207 6.34133 6.92007 6.318 6.86407 6.318C6.80807 6.318 6.75207 6.34133 6.69607 6.388C6.6494 6.42533 6.62607 6.472 6.62607 6.528C6.62607 6.612 6.72874 6.654 6.93407 6.654C7.0554 6.654 7.15807 6.63533 7.24207 6.598C7.35407 6.56067 7.40074 6.50933 7.38207 6.444C7.3634 6.39733 7.3074 6.388 7.21407 6.416C7.10207 6.45333 7.0274 6.444 6.99007 6.388ZM11.7221 5.8C11.7967 5.8 11.7874 5.75333 11.6941 5.66C11.6847 5.64133 11.6754 5.632 11.6661 5.632C11.6381 5.632 11.6241 5.66 11.6241 5.716C11.6241 5.772 11.6567 5.8 11.7221 5.8ZM11.7921 5.464C11.7174 5.464 11.6987 5.48267 11.7361 5.52C11.7734 5.55733 11.8107 5.55733 11.8481 5.52C11.8481 5.492 11.8294 5.47333 11.7921 5.464ZM7.32607 3.672C8.24074 1.87067 8.7074 0.969999 8.72607 0.969999L8.92207 1.054C8.99674 1.09133 9.03407 1.12867 9.03407 1.166C9.03407 1.20333 9.00607 1.278 8.95007 1.39C8.86607 1.558 8.8474 1.65133 8.89407 1.67C8.92207 1.698 9.1414 1.73067 9.55207 1.768L10.1541 1.824L10.4341 3.868C10.6114 5.19333 10.7281 5.92133 10.7841 6.052C10.8214 6.136 10.8914 6.07533 10.9941 5.87L11.0221 5.786C11.3581 5.03 11.7781 4.134 12.2821 3.098C12.7954 2.062 13.0941 1.488 13.1781 1.376C13.2807 1.21733 13.3461 1.15667 13.3741 1.194C13.3834 1.20333 13.3974 1.236 13.4161 1.292C13.4534 1.38533 13.5094 1.446 13.5841 1.474C13.6681 1.502 13.8501 1.53933 14.1301 1.586C14.5221 1.65133 14.7554 1.70267 14.8301 1.74C14.9047 1.77733 14.9421 1.86133 14.9421 1.992C14.9421 2.09467 14.9654 2.17867 15.0121 2.244C15.0681 2.30933 15.1801 2.39333 15.3481 2.496L15.8101 2.79C15.8101 3.13533 15.6747 4.09667 15.4041 5.674C15.1241 7.39133 14.9841 8.37133 14.9841 8.614C14.9841 8.754 14.9981 8.87067 15.0261 8.964C15.0634 9.132 15.0821 9.23933 15.0821 9.286C15.0821 9.426 14.9747 9.76667 14.7601 10.308L14.3961 11.232L14.1021 11.218L13.7941 11.19L13.5981 10.168C13.5047 9.70133 13.4581 9.3 13.4581 8.964V8.894C13.5701 8.23133 13.6774 7.004 13.7801 5.212C13.8174 4.596 13.8501 4.19 13.8781 3.994C13.9154 3.77933 13.9061 3.672 13.8501 3.672C13.8127 3.672 13.6634 3.94733 13.4021 4.498C13.1407 5.03933 12.9027 5.562 12.6881 6.066C12.6041 6.28067 12.5387 6.388 12.4921 6.388C12.4641 6.388 12.4407 6.444 12.4221 6.556C12.4127 6.668 12.1747 7.228 11.7081 8.236C11.2507 9.244 10.9987 9.75733 10.9521 9.776H10.9381C10.8447 9.776 10.5974 9.61733 10.1961 9.3C9.79474 8.97333 9.58007 8.75867 9.55207 8.656C9.51474 8.53467 9.49607 8.40867 9.49607 8.278C9.49607 8.10067 9.5334 8.012 9.60807 8.012C9.6454 8.012 9.69207 8.05867 9.74807 8.152C9.77607 8.208 9.8134 8.236 9.86007 8.236C9.93474 8.236 9.99074 8.152 10.0281 7.984C10.0374 7.89067 10.0887 7.872 10.1821 7.928C10.2567 7.97467 10.2614 8.04 10.1961 8.124C10.1587 8.16133 10.1354 8.18933 10.1261 8.208C10.1261 8.22667 10.1401 8.24067 10.1681 8.25C10.1961 8.25933 10.2427 8.264 10.3081 8.264C10.4014 8.264 10.4574 8.25 10.4761 8.222C10.5041 8.18467 10.5181 8.11 10.5181 7.998C10.5181 7.83 10.4761 7.746 10.3921 7.746C10.3734 7.746 10.3081 7.75533 10.1961 7.774H10.0561C9.8974 7.774 9.79007 7.76 9.73407 7.732C9.64074 7.68533 9.5894 7.71333 9.58007 7.816C9.58007 7.85333 9.5754 7.872 9.56607 7.872C9.53807 7.872 9.49607 7.75533 9.44007 7.522C9.38407 7.27933 9.3514 7.08333 9.34207 6.934V6.584L10.7841 6.626C11.0641 6.63533 11.3767 6.64 11.7221 6.64C12.0394 6.64 12.1981 6.61667 12.1981 6.57C12.1981 6.50467 12.1001 6.46267 11.9041 6.444C11.7081 6.42533 11.3254 6.40667 10.7561 6.388C9.80407 6.35067 9.31874 6.32267 9.30007 6.304C9.26274 6.26667 9.19274 5.86067 9.09007 5.086C8.97807 4.29267 8.9174 3.896 8.90807 3.896C8.87074 3.896 8.4554 4.694 7.66207 6.29C6.51407 8.586 5.87007 9.87867 5.73007 10.168L5.14207 10.336C4.7594 10.448 4.52607 10.5273 4.44207 10.574C4.38607 10.602 4.15274 11.1667 3.74207 12.268C3.3314 13.36 3.1074 13.9247 3.07007 13.962C3.04207 13.99 3.01407 14.004 2.98607 14.004C2.9114 14.004 2.8274 13.9247 2.73407 13.766C2.64074 13.6167 2.56607 13.4253 2.51007 13.192L2.37007 12.618L2.58007 12.254C2.6734 12.086 2.75274 11.974 2.81807 11.918C2.8834 11.862 2.97674 11.8293 3.09807 11.82L3.40607 11.778L4.10607 10.168C4.4514 9.37467 4.8154 8.6 5.19807 7.844C5.58074 7.088 5.80474 6.696 5.87007 6.668C5.91674 6.64933 5.94007 6.59333 5.94007 6.5C5.94007 6.416 6.40207 5.47333 7.32607 3.672ZM19.8171 8.404C19.8171 8.35733 19.7798 8.32467 19.7051 8.306C19.6398 8.278 19.5698 8.27333 19.4951 8.292C19.3645 8.33867 19.3411 8.39 19.4251 8.446C19.4625 8.474 19.5185 8.488 19.5931 8.488C19.7425 8.488 19.8171 8.46 19.8171 8.404ZM18.4451 8.264C18.4451 8.24533 18.4171 8.236 18.3611 8.236C18.3051 8.236 18.2771 8.264 18.2771 8.32C18.2771 8.39467 18.3191 8.39467 18.4031 8.32C18.4311 8.30133 18.4451 8.28267 18.4451 8.264ZM22.3511 7.466L22.4351 7.018C22.4351 6.99933 22.4025 6.99 22.3371 6.99C22.2251 6.99 22.0898 7.01333 21.9311 7.06C21.7725 7.09733 21.6838 7.13467 21.6651 7.172C21.6185 7.256 21.3011 7.298 20.7131 7.298H19.8171L19.6911 7.55L19.5511 7.802H20.0131C20.2558 7.802 20.7038 7.82067 21.3571 7.858L22.2531 7.914L22.3511 7.466ZM18.4171 6.724L18.9211 6.01L20.6711 6.052C21.8938 6.08933 22.7151 6.122 23.1351 6.15L23.8351 6.206L23.7931 6.444C23.7465 6.65867 23.7091 6.88733 23.6811 7.13C23.6438 7.44733 23.5645 7.65733 23.4431 7.76C23.3125 7.86267 23.0978 8.36667 22.7991 9.272L22.3651 10.616L21.9731 10.672C21.7025 10.7093 21.5671 10.7093 21.5671 10.672C21.5671 10.6253 21.6231 10.3313 21.7351 9.79C21.8565 9.23933 21.9171 8.93133 21.9171 8.866C21.9171 8.84733 21.8798 8.838 21.8051 8.838C21.6278 8.838 21.3385 8.86133 20.9371 8.908C20.3118 8.98267 19.7191 9.034 19.1591 9.062C18.7578 9.08067 18.5058 9.104 18.4031 9.132C18.3005 9.15067 18.2258 9.20667 18.1791 9.3C18.1325 9.39333 18.0718 9.454 17.9971 9.482C17.9318 9.50067 17.7871 9.51 17.5631 9.51C17.2085 9.51 16.9985 9.53333 16.9331 9.58C16.8958 9.608 16.8771 9.63133 16.8771 9.65C16.8771 9.706 17.0171 9.734 17.2971 9.734C17.4558 9.734 17.5865 9.72933 17.6891 9.72C18.0905 9.67333 18.3005 9.59867 18.3191 9.496C18.3565 9.39333 18.4265 9.33733 18.5291 9.328C18.5758 9.34667 18.6038 9.37 18.6131 9.398C18.6131 9.426 18.4265 9.79 18.0531 10.49L17.4931 11.526L17.0171 11.708C16.7838 11.792 16.6298 11.834 16.5551 11.834C16.4991 11.834 16.4525 11.82 16.4151 11.792C16.4058 11.7827 16.3685 11.75 16.3031 11.694C16.2378 11.6473 16.1631 11.5913 16.0791 11.526C16.0045 11.47 15.9345 11.414 15.8691 11.358L15.4631 11.022L15.8971 10.392C16.1865 9.972 16.3731 9.762 16.4571 9.762C16.5038 9.762 16.5271 9.72467 16.5271 9.65C16.5271 9.54733 16.7185 9.21133 17.1011 8.642L17.7171 7.76L18.1371 7.718C18.4078 7.68067 18.5618 7.62933 18.5991 7.564C18.6178 7.51733 18.5805 7.494 18.4871 7.494L18.2911 7.508C18.0578 7.54533 17.9411 7.54533 17.9411 7.508C17.9411 7.452 18.0998 7.19067 18.4171 6.724ZM28.7896 9.188C28.8456 9.188 28.8736 9.16 28.8736 9.104C28.8736 9.048 28.8643 9.02 28.8456 9.02C28.8083 9.02 28.7756 9.05267 28.7476 9.118C28.7476 9.15533 28.7616 9.17867 28.7896 9.188ZM28.9996 6.556C28.8596 6.50933 28.3789 6.486 27.5576 6.486H27.1376C26.6429 6.486 26.3396 6.514 26.2276 6.57C26.1156 6.626 26.0549 6.77067 26.0456 7.004V7.088C26.0456 7.172 26.0596 7.228 26.0876 7.256C26.1156 7.27467 26.1763 7.29333 26.2696 7.312H26.2976C26.5123 7.312 27.0163 7.20467 27.8096 6.99C28.6123 6.766 29.0136 6.626 29.0136 6.57C29.0136 6.56067 29.0089 6.556 28.9996 6.556ZM25.4016 5.898L25.5696 5.52L26.1856 5.576C28.7523 5.78133 30.3903 5.884 31.0996 5.884C31.2489 5.884 31.4123 6.01467 31.5896 6.276C31.7576 6.528 31.8416 6.668 31.8416 6.696L29.9796 7.34C28.7383 7.75067 28.1176 7.97467 28.1176 8.012C28.1176 8.04 28.6123 8.24533 29.6016 8.628L31.0996 9.216L30.0916 10.224L29.4616 10.042C28.9669 9.89267 28.7196 9.79 28.7196 9.734C28.7196 9.71533 28.7709 9.706 28.8736 9.706C29.4896 9.66867 29.7976 9.622 29.7976 9.566C29.7976 9.54733 29.6016 9.538 29.2096 9.538C28.7803 9.538 28.5376 9.566 28.4816 9.622C28.4069 9.69667 28.3556 9.69667 28.3276 9.622C28.2996 9.566 28.2296 9.538 28.1176 9.538C28.0243 9.538 27.7583 9.454 27.3196 9.286C26.8903 9.118 26.4936 8.94533 26.1296 8.768C25.8123 8.6 25.6209 8.516 25.5556 8.516C25.5369 8.516 25.4109 8.73533 25.1776 9.174C24.9536 9.60333 24.7249 10.0373 24.4916 10.476L24.1556 11.134H24.1416C24.0949 11.134 23.9736 11.0127 23.7776 10.77C23.5816 10.5367 23.4836 10.378 23.4836 10.294C23.4836 10.1447 23.6049 9.804 23.8476 9.272C24.5196 7.86267 25.0376 6.738 25.4016 5.898ZM35.0044 7.13C35.2284 6.99 35.3777 6.92 35.4524 6.92C35.5271 6.92 35.5644 7.00867 35.5644 7.186C35.5644 7.242 35.5551 7.40067 35.5364 7.662C35.5271 7.78333 35.5224 7.93733 35.5224 8.124C35.5224 8.38533 35.5551 8.516 35.6204 8.516C35.6577 8.516 35.7044 8.488 35.7604 8.432C35.8257 8.36667 35.8211 8.31067 35.7464 8.264C35.7277 8.25467 35.7184 8.236 35.7184 8.208C35.7184 8.13333 35.9844 7.886 36.5164 7.466C36.7031 7.31667 36.8431 7.228 36.9364 7.2C37.0391 7.172 37.2351 7.158 37.5244 7.158C37.9257 7.158 38.1171 7.18133 38.0984 7.228C38.0797 7.27467 37.3844 8.12867 36.0124 9.79L33.9404 12.268L33.2964 12.59C33.0257 12.7207 32.8157 12.842 32.6664 12.954C32.5171 13.0753 32.3397 13.262 32.1344 13.514C31.8171 13.8967 31.6164 14.088 31.5324 14.088C31.4951 14.088 31.4811 14.0553 31.4904 13.99C31.4904 13.934 32.1484 13.1033 33.4644 11.498C34.7991 9.86467 35.4757 9.02933 35.4944 8.992C35.5317 8.91733 35.5037 8.88467 35.4104 8.894L35.3684 8.908H35.3124C35.1911 8.908 35.0557 8.81933 34.9064 8.642C34.7851 8.51133 34.7057 8.39933 34.6684 8.306C34.6404 8.21267 34.6264 8.05867 34.6264 7.844C34.6264 7.60133 34.6404 7.452 34.6684 7.396C34.7057 7.33067 34.8177 7.242 35.0044 7.13ZM42.1149 8.404C42.1149 8.35733 42.0775 8.32467 42.0029 8.306C41.9375 8.278 41.8675 8.27333 41.7929 8.292C41.6622 8.33867 41.6389 8.39 41.7229 8.446C41.7602 8.474 41.8162 8.488 41.8909 8.488C42.0402 8.488 42.1149 8.46 42.1149 8.404ZM40.7429 8.264C40.7429 8.24533 40.7149 8.236 40.6589 8.236C40.6029 8.236 40.5749 8.264 40.5749 8.32C40.5749 8.39467 40.6169 8.39467 40.7009 8.32C40.7289 8.30133 40.7429 8.28267 40.7429 8.264ZM44.6489 7.466L44.7329 7.018C44.7329 6.99933 44.7002 6.99 44.6349 6.99C44.5229 6.99 44.3875 7.01333 44.2289 7.06C44.0702 7.09733 43.9815 7.13467 43.9629 7.172C43.9162 7.256 43.5989 7.298 43.0109 7.298H42.1149L41.9889 7.55L41.8489 7.802H42.3109C42.5535 7.802 43.0015 7.82067 43.6549 7.858L44.5509 7.914L44.6489 7.466ZM40.7149 6.724L41.2189 6.01L42.9689 6.052C44.1915 6.08933 45.0129 6.122 45.4329 6.15L46.1329 6.206L46.0909 6.444C46.0442 6.65867 46.0069 6.88733 45.9789 7.13C45.9415 7.44733 45.8622 7.65733 45.7409 7.76C45.6102 7.86267 45.3955 8.36667 45.0969 9.272L44.6629 10.616L44.2709 10.672C44.0002 10.7093 43.8649 10.7093 43.8649 10.672C43.8649 10.6253 43.9209 10.3313 44.0329 9.79C44.1542 9.23933 44.2149 8.93133 44.2149 8.866C44.2149 8.84733 44.1775 8.838 44.1029 8.838C43.9255 8.838 43.6362 8.86133 43.2349 8.908C42.6095 8.98267 42.0169 9.034 41.4569 9.062C41.0555 9.08067 40.8035 9.104 40.7009 9.132C40.5982 9.15067 40.5235 9.20667 40.4769 9.3C40.4302 9.39333 40.3695 9.454 40.2949 9.482C40.2295 9.50067 40.0849 9.51 39.8609 9.51C39.5062 9.51 39.2962 9.53333 39.2309 9.58C39.1935 9.608 39.1749 9.63133 39.1749 9.65C39.1749 9.706 39.3149 9.734 39.5949 9.734C39.7535 9.734 39.8842 9.72933 39.9869 9.72C40.3882 9.67333 40.5982 9.59867 40.6169 9.496C40.6542 9.39333 40.7242 9.33733 40.8269 9.328C40.8735 9.34667 40.9015 9.37 40.9109 9.398C40.9109 9.426 40.7242 9.79 40.3509 10.49L39.7909 11.526L39.3149 11.708C39.0815 11.792 38.9275 11.834 38.8529 11.834C38.7969 11.834 38.7502 11.82 38.7129 11.792C38.7035 11.7827 38.6662 11.75 38.6009 11.694C38.5355 11.6473 38.4609 11.5913 38.3769 11.526C38.3022 11.47 38.2322 11.414 38.1669 11.358L37.7609 11.022L38.1949 10.392C38.4842 9.972 38.6709 9.762 38.7549 9.762C38.8015 9.762 38.8249 9.72467 38.8249 9.65C38.8249 9.54733 39.0162 9.21133 39.3989 8.642L40.0149 7.76L40.4349 7.718C40.7055 7.68067 40.8595 7.62933 40.8969 7.564C40.9155 7.51733 40.8782 7.494 40.7849 7.494L40.5889 7.508C40.3555 7.54533 40.2389 7.54533 40.2389 7.508C40.2389 7.452 40.3975 7.19067 40.7149 6.724ZM51.1433 9.622C51.1713 9.622 51.1853 9.608 51.1853 9.58C51.1853 9.552 51.1713 9.538 51.1433 9.538C51.1153 9.538 51.1013 9.552 51.1013 9.58C51.1013 9.608 51.1153 9.622 51.1433 9.622ZM51.0733 8.488L51.9133 6.99H52.6133C53.0987 6.99 53.3413 7.00867 53.3413 7.046C53.3413 7.11133 52.8933 7.96533 51.9973 9.608C51.1013 11.2413 50.6067 12.114 50.5133 12.226C50.4387 12.3007 50.238 12.338 49.9113 12.338C49.6687 12.338 49.5193 12.3193 49.4633 12.282C49.4073 12.254 49.3233 12.1513 49.2113 11.974C49.062 11.7033 48.9733 11.442 48.9453 11.19C48.9267 11.0313 48.8893 10.798 48.8333 10.49L48.7913 10.21H49.3373C50.0653 10.21 50.4853 10.1167 50.5973 9.93C50.6533 9.83667 50.6767 9.79 50.6673 9.79C50.658 9.78067 50.6067 9.818 50.5133 9.902C50.3827 10.0233 50.308 10.0607 50.2893 10.014C50.2893 9.91133 50.5507 9.40267 51.0733 8.488ZM48.3713 7.298C48.6793 6.74733 48.8427 6.472 48.8613 6.472C48.8893 6.472 48.894 6.56533 48.8753 6.752C48.8753 6.77067 48.8707 6.794 48.8613 6.822C48.8613 6.85 48.8613 6.86867 48.8613 6.878C48.8613 6.94333 48.8753 6.98533 48.9033 7.004C48.9313 7.02267 48.992 7.04133 49.0853 7.06C49.2253 7.07867 49.314 7.13467 49.3513 7.228C49.846 8.936 50.0933 9.82733 50.0933 9.902C50.0933 9.93 50.0793 9.95333 50.0513 9.972C50.0233 9.99067 49.9673 10.0047 49.8833 10.014C49.7993 10.0233 49.6827 10.028 49.5333 10.028C49.3933 10.0373 49.1973 10.042 48.9453 10.042C48.18 10.042 47.7833 10.07 47.7553 10.126C47.7367 10.154 47.7647 10.1773 47.8393 10.196C47.9047 10.2053 47.9887 10.21 48.0913 10.21C48.3433 10.21 48.4693 10.2287 48.4693 10.266C48.4693 10.3127 48.292 10.616 47.9373 11.176L47.4053 12.03L46.9433 12.128C46.4953 12.2307 46.1827 12.282 46.0053 12.282C45.856 12.282 45.7813 12.24 45.7813 12.156C45.7813 11.9973 45.8607 11.7827 46.0193 11.512C46.1407 11.288 46.234 11.1387 46.2993 11.064C46.374 10.9893 46.4767 10.9333 46.6073 10.896H46.6213L46.6493 10.882L46.8173 10.826C46.808 10.826 46.7613 10.8213 46.6773 10.812H46.4393L46.5793 10.504C46.6447 10.364 46.7053 10.28 46.7613 10.252C46.8173 10.224 46.9573 10.21 47.1813 10.21C47.48 10.21 47.6293 10.1773 47.6293 10.112C47.6293 10.0653 47.6107 10.0513 47.5733 10.07C47.536 10.098 47.4053 10.0933 47.1813 10.056L46.8733 10L47.3913 9.062C47.494 8.87533 47.662 8.56733 47.8953 8.138C48.138 7.70867 48.2967 7.42867 48.3713 7.298ZM53.4708 7.55C53.5362 7.58733 53.5922 7.58733 53.6388 7.55C53.6575 7.522 53.6435 7.508 53.5968 7.508C53.5782 7.508 53.5548 7.508 53.5268 7.508C53.4522 7.508 53.4242 7.51733 53.4428 7.536C53.4428 7.536 53.4522 7.54067 53.4708 7.55ZM57.1668 6.794C57.1202 6.77533 57.0688 6.76133 57.0128 6.752C56.9102 6.752 56.8635 6.76133 56.8728 6.78C56.8728 6.78 56.8868 6.78467 56.9148 6.794C57.0082 6.81267 57.0922 6.81267 57.1668 6.794ZM56.5368 6.738C56.4622 6.738 56.4435 6.75667 56.4808 6.794C56.5182 6.83133 56.5555 6.83133 56.5928 6.794C56.5928 6.766 56.5742 6.74733 56.5368 6.738ZM55.9488 6.822C56.1542 6.794 56.2568 6.77533 56.2568 6.766C56.2568 6.75667 56.0655 6.74733 55.6828 6.738C55.1788 6.738 54.9268 6.766 54.9268 6.822C54.9268 6.86867 55.0155 6.892 55.1928 6.892C55.4168 6.892 55.6688 6.86867 55.9488 6.822ZM60.6248 3.434C63.4435 2.01533 64.8715 1.306 64.9088 1.306C64.9275 1.306 64.9368 1.348 64.9368 1.432C64.9368 1.516 64.8062 1.656 64.5448 1.852C64.2835 2.048 64.0735 2.27667 63.9148 2.538C63.8122 2.69667 63.6862 2.82733 63.5368 2.93C63.3875 3.03267 63.0888 3.20067 62.6408 3.434C61.9502 3.77 61.5162 4.01733 61.3388 4.176C61.2175 4.29733 60.5595 4.68 59.3648 5.324C58.2168 5.93067 57.6428 6.24333 57.6428 6.262C57.6428 6.28067 57.9835 6.49533 58.6648 6.906C59.3462 7.31667 59.6868 7.55467 59.6868 7.62C59.6868 7.68533 59.6215 7.73667 59.4908 7.774C59.4162 7.79267 59.3742 7.816 59.3648 7.844C59.3648 7.86267 59.3835 7.89533 59.4208 7.942C59.4955 8.03533 59.6122 8.11467 59.7708 8.18C59.9948 8.28267 60.1068 8.51133 60.1068 8.866C60.1068 8.88467 60.1022 8.922 60.0928 8.978C60.0928 9.02467 60.0928 9.062 60.0928 9.09C60.0835 9.21133 60.0835 9.29067 60.0928 9.328C60.1115 9.36533 60.1488 9.384 60.2048 9.384C60.2795 9.384 61.2782 9.89267 63.2008 10.91C65.1235 11.9367 66.1595 12.45 66.3088 12.45H66.3228L66.3368 12.436C66.3555 12.436 66.3695 12.436 66.3788 12.436C66.5188 12.436 66.7008 12.4873 66.9248 12.59C67.1208 12.674 67.2515 12.744 67.3168 12.8C67.3915 12.8653 67.4475 12.9633 67.4848 13.094C67.5408 13.29 67.5688 13.4393 67.5688 13.542C67.5688 13.626 67.5502 13.668 67.5128 13.668H67.4988C67.2748 13.556 66.1408 12.9447 64.0968 11.834C62.0622 10.7327 60.1068 9.678 58.2308 8.67C56.3642 7.662 55.4215 7.16267 55.4028 7.172C55.3842 7.19067 55.1042 7.65733 54.5628 8.572C54.0215 9.496 53.7275 9.958 53.6808 9.958C53.6622 9.958 53.5408 9.88333 53.3168 9.734C53.1022 9.58467 52.9948 9.50067 52.9948 9.482C52.9948 9.47267 53.0042 9.44467 53.0228 9.398C53.0415 9.35133 53.0648 9.28133 53.0928 9.188C53.1302 9.09467 53.1628 9.01067 53.1908 8.936C53.3122 8.656 53.3728 8.474 53.3728 8.39C53.3728 8.34333 53.3402 8.23133 53.2748 8.054L53.1348 7.69L54.2548 5.59C55.0108 4.19933 55.4495 3.504 55.5708 3.504C55.5988 3.504 55.6128 3.53667 55.6128 3.602C55.6128 3.64867 55.7202 3.672 55.9348 3.672C56.0935 3.672 56.2242 3.66733 56.3268 3.658C56.4482 3.64867 56.5882 3.644 56.7468 3.644C56.9708 3.644 57.0828 3.686 57.0828 3.77C57.0828 3.854 56.9522 4.15733 56.6908 4.68C56.6255 4.82 56.5742 4.92733 56.5368 5.002C56.4995 5.07667 56.4575 5.16067 56.4108 5.254C56.3735 5.34733 56.3455 5.41733 56.3268 5.464C56.3175 5.50133 56.3175 5.52 56.3268 5.52C56.4295 5.52 57.8622 4.82467 60.6248 3.434ZM69.5607 10.63C69.5327 10.574 69.472 10.546 69.3787 10.546C69.2667 10.546 69.2573 10.588 69.3507 10.672L69.4767 10.728C69.514 10.728 69.542 10.714 69.5607 10.686C69.5793 10.6673 69.5793 10.6487 69.5607 10.63ZM73.7607 4.12C73.7607 4.04533 73.854 3.938 74.0407 3.798C74.2273 3.658 74.3627 3.588 74.4467 3.588C74.5213 3.588 74.5587 3.60667 74.5587 3.644C74.5587 3.68133 74.5027 3.80733 74.3907 4.022C74.2507 4.302 74.1433 4.442 74.0687 4.442C74.0127 4.442 73.686 4.78267 73.0887 5.464C72.5007 6.136 72.1227 6.60267 71.9547 6.864C71.8053 7.10667 71.698 7.37267 71.6327 7.662C71.5673 7.97 71.2313 8.61867 70.6247 9.608C69.318 11.736 68.6553 12.828 68.6367 12.884C68.6273 12.912 68.6133 12.926 68.5947 12.926C68.5013 12.926 68.3847 12.7207 68.2447 12.31C68.1607 12.0673 67.988 11.33 67.7267 10.098C67.484 8.93133 67.3207 8.348 67.2367 8.348C67.162 8.348 67.218 8.24067 67.4047 8.026C67.6007 7.82067 67.7267 7.65733 67.7827 7.536C67.848 7.44267 67.9367 7.41467 68.0487 7.452C68.1233 7.48 68.1793 7.55933 68.2167 7.69C68.2633 7.82067 68.3287 8.10533 68.4127 8.544C68.4873 9.01067 68.5853 9.50533 68.7067 10.028L68.7907 10.504L68.9867 10.252C69.0613 10.1587 69.4907 9.538 70.2747 8.39C70.9933 7.33533 71.474 6.72867 71.7167 6.57C71.8753 6.46733 72.2533 6.05667 72.8507 5.338C73.4573 4.61933 73.7607 4.21333 73.7607 4.12ZM78.5717 8.404C78.5717 8.35733 78.5344 8.32467 78.4597 8.306C78.3944 8.278 78.3244 8.27333 78.2497 8.292C78.1191 8.33867 78.0957 8.39 78.1797 8.446C78.2171 8.474 78.2731 8.488 78.3477 8.488C78.4971 8.488 78.5717 8.46 78.5717 8.404ZM77.1997 8.264C77.1997 8.24533 77.1717 8.236 77.1157 8.236C77.0597 8.236 77.0317 8.264 77.0317 8.32C77.0317 8.39467 77.0737 8.39467 77.1577 8.32C77.1857 8.30133 77.1997 8.28267 77.1997 8.264ZM81.1057 7.466L81.1897 7.018C81.1897 6.99933 81.1571 6.99 81.0917 6.99C80.9797 6.99 80.8444 7.01333 80.6857 7.06C80.5271 7.09733 80.4384 7.13467 80.4197 7.172C80.3731 7.256 80.0557 7.298 79.4677 7.298H78.5717L78.4457 7.55L78.3057 7.802H78.7677C79.0104 7.802 79.4584 7.82067 80.1117 7.858L81.0077 7.914L81.1057 7.466ZM77.1717 6.724L77.6757 6.01L79.4257 6.052C80.6484 6.08933 81.4697 6.122 81.8897 6.15L82.5897 6.206L82.5477 6.444C82.5011 6.65867 82.4637 6.88733 82.4357 7.13C82.3984 7.44733 82.3191 7.65733 82.1977 7.76C82.0671 7.86267 81.8524 8.36667 81.5537 9.272L81.1197 10.616L80.7277 10.672C80.4571 10.7093 80.3217 10.7093 80.3217 10.672C80.3217 10.6253 80.3777 10.3313 80.4897 9.79C80.6111 9.23933 80.6717 8.93133 80.6717 8.866C80.6717 8.84733 80.6344 8.838 80.5597 8.838C80.3824 8.838 80.0931 8.86133 79.6917 8.908C79.0664 8.98267 78.4737 9.034 77.9137 9.062C77.5124 9.08067 77.2604 9.104 77.1577 9.132C77.0551 9.15067 76.9804 9.20667 76.9337 9.3C76.8871 9.39333 76.8264 9.454 76.7517 9.482C76.6864 9.50067 76.5417 9.51 76.3177 9.51C75.9631 9.51 75.7531 9.53333 75.6877 9.58C75.6504 9.608 75.6317 9.63133 75.6317 9.65C75.6317 9.706 75.7717 9.734 76.0517 9.734C76.2104 9.734 76.3411 9.72933 76.4437 9.72C76.8451 9.67333 77.0551 9.59867 77.0737 9.496C77.1111 9.39333 77.1811 9.33733 77.2837 9.328C77.3304 9.34667 77.3584 9.37 77.3677 9.398C77.3677 9.426 77.1811 9.79 76.8077 10.49L76.2477 11.526L75.7717 11.708C75.5384 11.792 75.3844 11.834 75.3097 11.834C75.2537 11.834 75.2071 11.82 75.1697 11.792C75.1604 11.7827 75.1231 11.75 75.0577 11.694C74.9924 11.6473 74.9177 11.5913 74.8337 11.526C74.7591 11.47 74.6891 11.414 74.6237 11.358L74.2177 11.022L74.6517 10.392C74.9411 9.972 75.1277 9.762 75.2117 9.762C75.2584 9.762 75.2817 9.72467 75.2817 9.65C75.2817 9.54733 75.4731 9.21133 75.8557 8.642L76.4717 7.76L76.8917 7.718C77.1624 7.68067 77.3164 7.62933 77.3537 7.564C77.3724 7.51733 77.3351 7.494 77.2417 7.494L77.0457 7.508C76.8124 7.54533 76.6957 7.54533 76.6957 7.508C76.6957 7.452 76.8544 7.19067 77.1717 6.724ZM85.4582 6.976C86.1022 6.70533 86.4615 6.57 86.5362 6.57C86.5922 6.57 86.6622 6.654 86.7462 6.822C86.8302 6.98067 86.8722 7.116 86.8722 7.228C86.8722 7.24667 86.8675 7.27 86.8582 7.298C86.8582 7.31667 86.8582 7.33533 86.8582 7.354C86.8582 7.53133 86.9422 7.82533 87.1102 8.236C87.2782 8.64667 87.4089 8.866 87.5022 8.894C87.6142 8.922 87.6702 9.04333 87.6702 9.258C87.6702 9.38867 87.6329 9.454 87.5582 9.454C87.4835 9.454 87.4135 9.41667 87.3482 9.342C87.2829 9.26733 87.2502 9.188 87.2502 9.104C87.2502 9.02933 87.1755 8.91733 87.0262 8.768C86.8862 8.61867 86.7602 8.52533 86.6482 8.488C86.5362 8.44133 86.4102 8.26867 86.2702 7.97C86.2329 7.886 86.1909 7.80667 86.1442 7.732C86.1069 7.65733 86.0742 7.60133 86.0462 7.564C86.0182 7.51733 85.9995 7.49867 85.9902 7.508C84.9822 8.012 84.4642 8.264 84.4362 8.264C84.3895 8.264 84.2542 8.34333 84.0302 8.502C83.8062 8.65133 83.6895 8.74467 83.6802 8.782C83.6802 8.80067 84.1095 8.992 84.9682 9.356C85.5095 9.58 85.8875 9.72467 86.1022 9.79C86.3262 9.846 86.5502 9.874 86.7742 9.874H87.3062L87.3622 10.546C87.3809 10.826 87.3902 11.0033 87.3902 11.078C87.3902 11.4513 87.3015 11.6567 87.1242 11.694C86.4709 11.7873 85.8129 11.876 85.1502 11.96C84.2169 12.0813 83.6615 12.142 83.4842 12.142C83.3442 12.142 83.2089 12.1047 83.0782 12.03C82.9009 11.9273 82.7609 11.75 82.6582 11.498C82.5835 11.2647 82.4902 11.106 82.3782 11.022C82.2849 10.9567 82.2382 10.8587 82.2382 10.728C82.2382 10.6627 82.2475 10.616 82.2662 10.588C82.2849 10.5693 82.3315 10.56 82.4062 10.56C82.4155 10.56 82.5322 10.5693 82.7562 10.588C83.0549 10.616 83.2929 10.63 83.4702 10.63C83.6102 10.63 83.6802 10.6673 83.6802 10.742C83.6802 10.798 83.6242 10.84 83.5122 10.868C83.3349 10.9147 83.3115 11.0033 83.4422 11.134C83.5169 11.2087 83.5215 11.2927 83.4562 11.386C83.4095 11.4607 83.3862 11.5167 83.3862 11.554C83.3862 11.6473 83.4889 11.694 83.6942 11.694C83.8435 11.694 84.0675 11.666 84.3662 11.61C84.4782 11.5913 84.6229 11.568 84.8002 11.54C84.9775 11.512 85.1222 11.484 85.2342 11.456C85.3555 11.4373 85.4395 11.428 85.4862 11.428C85.6449 11.4093 85.8082 11.3253 85.9762 11.176C86.1442 11.0267 86.2282 10.8913 86.2282 10.77C86.2282 10.686 86.1489 10.5973 85.9902 10.504C85.8315 10.42 85.6729 10.378 85.5142 10.378C85.0289 10.378 84.3709 10.2193 83.5402 9.902C83.1855 9.77133 82.9662 9.678 82.8822 9.622C82.7982 9.566 82.7422 9.47267 82.7142 9.342C82.6862 9.16467 82.7049 9.05733 82.7702 9.02C82.8449 8.97333 82.8075 8.894 82.6582 8.782L82.4482 8.6L82.7002 8.39C83.1109 8.04467 84.0302 7.57333 85.4582 6.976ZM92.6676 9.622C92.6956 9.622 92.7096 9.608 92.7096 9.58C92.7096 9.552 92.6956 9.538 92.6676 9.538C92.6396 9.538 92.6256 9.552 92.6256 9.58C92.6256 9.608 92.6396 9.622 92.6676 9.622ZM92.5976 8.488L93.4376 6.99H94.1376C94.6229 6.99 94.8656 7.00867 94.8656 7.046C94.8656 7.11133 94.4176 7.96533 93.5216 9.608C92.6256 11.2413 92.1309 12.114 92.0376 12.226C91.9629 12.3007 91.7622 12.338 91.4356 12.338C91.1929 12.338 91.0436 12.3193 90.9876 12.282C90.9316 12.254 90.8476 12.1513 90.7356 11.974C90.5862 11.7033 90.4976 11.442 90.4696 11.19C90.4509 11.0313 90.4136 10.798 90.3576 10.49L90.3156 10.21H90.8616C91.5896 10.21 92.0096 10.1167 92.1216 9.93C92.1776 9.83667 92.2009 9.79 92.1916 9.79C92.1822 9.78067 92.1309 9.818 92.0376 9.902C91.9069 10.0233 91.8322 10.0607 91.8136 10.014C91.8136 9.91133 92.0749 9.40267 92.5976 8.488ZM89.8956 7.298C90.2036 6.74733 90.3669 6.472 90.3856 6.472C90.4136 6.472 90.4182 6.56533 90.3996 6.752C90.3996 6.77067 90.3949 6.794 90.3856 6.822C90.3856 6.85 90.3856 6.86867 90.3856 6.878C90.3856 6.94333 90.3996 6.98533 90.4276 7.004C90.4556 7.02267 90.5162 7.04133 90.6096 7.06C90.7496 7.07867 90.8382 7.13467 90.8756 7.228C91.3702 8.936 91.6176 9.82733 91.6176 9.902C91.6176 9.93 91.6036 9.95333 91.5756 9.972C91.5476 9.99067 91.4916 10.0047 91.4076 10.014C91.3236 10.0233 91.2069 10.028 91.0576 10.028C90.9176 10.0373 90.7216 10.042 90.4696 10.042C89.7042 10.042 89.3076 10.07 89.2796 10.126C89.2609 10.154 89.2889 10.1773 89.3636 10.196C89.4289 10.2053 89.5129 10.21 89.6156 10.21C89.8676 10.21 89.9936 10.2287 89.9936 10.266C89.9936 10.3127 89.8162 10.616 89.4616 11.176L88.9296 12.03L88.4676 12.128C88.0196 12.2307 87.7069 12.282 87.5296 12.282C87.3802 12.282 87.3056 12.24 87.3056 12.156C87.3056 11.9973 87.3849 11.7827 87.5436 11.512C87.6649 11.288 87.7582 11.1387 87.8236 11.064C87.8982 10.9893 88.0009 10.9333 88.1316 10.896H88.1456L88.1736 10.882L88.3416 10.826C88.3322 10.826 88.2856 10.8213 88.2016 10.812H87.9636L88.1036 10.504C88.1689 10.364 88.2296 10.28 88.2856 10.252C88.3416 10.224 88.4816 10.21 88.7056 10.21C89.0042 10.21 89.1536 10.1773 89.1536 10.112C89.1536 10.0653 89.1349 10.0513 89.0976 10.07C89.0602 10.098 88.9296 10.0933 88.7056 10.056L88.3976 10L88.9156 9.062C89.0182 8.87533 89.1862 8.56733 89.4196 8.138C89.6622 7.70867 89.8209 7.42867 89.8956 7.298ZM97.1231 11.904C97.2071 11.904 97.2071 11.8573 97.1231 11.764C97.1044 11.736 97.0857 11.722 97.0671 11.722C97.0484 11.722 97.0391 11.75 97.0391 11.806C97.0391 11.8713 97.0671 11.904 97.1231 11.904ZM98.2711 5.996C98.3084 5.95867 98.4204 5.94 98.6071 5.94C99.0551 5.94 99.3491 6.00067 99.4891 6.122C99.6197 6.22467 99.9744 6.28067 100.553 6.29L101.463 6.318C101.202 6.66333 100.936 7.05067 100.665 7.48C100.534 7.47067 100.334 7.452 100.063 7.424C99.8017 7.396 99.6011 7.37733 99.4611 7.368L99.1391 9.062C98.9711 9.986 98.8451 10.616 98.7611 10.952L98.7191 11.162C98.8591 11.1433 99.0737 11.1247 99.3631 11.106C99.6617 11.0873 99.8857 11.0687 100.035 11.05L99.9791 11.344C99.9604 11.4373 99.9511 11.4933 99.9511 11.512C99.9511 11.5867 100.03 11.6427 100.189 11.68C100.357 11.7173 100.441 11.806 100.441 11.946C100.441 12.086 100.422 12.1653 100.385 12.184C100.338 12.212 99.4984 12.2447 97.8651 12.282L95.4151 12.338V11.82C95.5457 11.82 95.7371 11.8107 95.9891 11.792C96.2504 11.7733 96.4417 11.764 96.5631 11.764L95.9471 11.75L95.3311 11.722L95.3591 11.4C95.3684 11.232 95.3871 11.1293 95.4151 11.092C95.4524 11.064 95.5737 11.036 95.7791 11.008C95.8351 10.9987 95.9191 10.994 96.0311 10.994C96.2271 10.994 96.3811 11.0127 96.4931 11.05C96.6051 11.0873 96.8244 11.106 97.1511 11.106C97.5057 11.106 97.7064 11.0827 97.7531 11.036C97.7811 11.008 97.8884 10.4153 98.0751 9.258C98.2617 8.10067 98.3551 7.45667 98.3551 7.326C98.3551 7.30733 98.1404 7.26067 97.7111 7.186C97.4217 7.13933 97.2351 7.09733 97.1511 7.06C97.0671 7.01333 96.9784 6.91533 96.8851 6.766L96.6751 6.444L95.8771 6.5C95.7557 6.50933 95.6017 6.514 95.4151 6.514C95.1444 6.514 94.9391 6.486 94.7991 6.43L94.5191 6.318L95.0791 6.248C95.5831 6.20133 96.1944 6.164 96.9131 6.136C97.7717 6.09867 98.2244 6.052 98.2711 5.996ZM104.03 8.18C104.058 8.18 104.072 8.166 104.072 8.138C104.072 8.11 104.058 8.096 104.03 8.096C104.002 8.096 103.988 8.11 103.988 8.138C103.988 8.166 104.002 8.18 104.03 8.18ZM105.052 7.074C105.08 7.074 105.094 7.06 105.094 7.032C105.094 7.004 105.08 6.99 105.052 6.99C105.024 6.99 105.01 7.004 105.01 7.032C105.01 7.06 105.024 7.074 105.052 7.074ZM101.104 6.29C101.104 6.18733 101.169 6.136 101.3 6.136C101.375 6.136 101.44 6.164 101.496 6.22C101.543 6.26667 102.014 6.32267 102.91 6.388C103.535 6.43467 103.904 6.458 104.016 6.458C104.212 6.458 104.352 6.43 104.436 6.374C104.539 6.318 104.66 6.29 104.8 6.29C105.052 6.29 105.178 6.34133 105.178 6.444C105.178 6.472 105.197 6.5 105.234 6.528C105.271 6.54667 105.351 6.56533 105.472 6.584C105.593 6.60267 105.766 6.626 105.99 6.654C106.214 6.67267 106.513 6.696 106.886 6.724C107.586 6.79867 107.997 6.86867 108.118 6.934C108.351 7.02733 108.622 7.088 108.93 7.116C109.294 7.16267 109.476 7.20933 109.476 7.256C109.476 7.34933 109.355 7.396 109.112 7.396C108.953 7.396 108.547 7.34933 107.894 7.256L106.76 7.088L106.424 7.256C106.237 7.35867 105.985 7.41 105.668 7.41H105.472H105.22C104.949 7.41 104.8 7.424 104.772 7.452C104.716 7.52667 104.343 8.33867 103.652 9.888C102.943 11.4653 102.555 12.254 102.49 12.254C102.359 12.254 102.294 12.1233 102.294 11.862C102.294 11.6567 102.303 11.4793 102.322 11.33C102.378 10.8633 102.443 10.63 102.518 10.63C102.602 10.63 102.667 10.5833 102.714 10.49C102.761 10.3967 102.971 9.85067 103.344 8.852C103.717 7.85333 103.904 7.33533 103.904 7.298C103.904 7.26067 103.787 7.242 103.554 7.242C103.199 7.23267 102.789 7.186 102.322 7.102C101.865 7.018 101.589 6.934 101.496 6.85C101.244 6.626 101.113 6.43933 101.104 6.29ZM112.358 6.976C113.002 6.70533 113.362 6.57 113.436 6.57C113.492 6.57 113.562 6.654 113.646 6.822C113.73 6.98067 113.772 7.116 113.772 7.228C113.772 7.24667 113.768 7.27 113.758 7.298C113.758 7.31667 113.758 7.33533 113.758 7.354C113.758 7.53133 113.842 7.82533 114.01 8.236C114.178 8.64667 114.309 8.866 114.402 8.894C114.514 8.922 114.57 9.04333 114.57 9.258C114.57 9.38867 114.533 9.454 114.458 9.454C114.384 9.454 114.314 9.41667 114.248 9.342C114.183 9.26733 114.15 9.188 114.15 9.104C114.15 9.02933 114.076 8.91733 113.926 8.768C113.786 8.61867 113.66 8.52533 113.548 8.488C113.436 8.44133 113.31 8.26867 113.17 7.97C113.133 7.886 113.091 7.80667 113.044 7.732C113.007 7.65733 112.974 7.60133 112.946 7.564C112.918 7.51733 112.9 7.49867 112.89 7.508C111.882 8.012 111.364 8.264 111.336 8.264C111.29 8.264 111.154 8.34333 110.93 8.502C110.706 8.65133 110.59 8.74467 110.58 8.782C110.58 8.80067 111.01 8.992 111.868 9.356C112.41 9.58 112.788 9.72467 113.002 9.79C113.226 9.846 113.45 9.874 113.674 9.874H114.206L114.262 10.546C114.281 10.826 114.29 11.0033 114.29 11.078C114.29 11.4513 114.202 11.6567 114.024 11.694C113.371 11.7873 112.713 11.876 112.05 11.96C111.117 12.0813 110.562 12.142 110.384 12.142C110.244 12.142 110.109 12.1047 109.978 12.03C109.801 11.9273 109.661 11.75 109.558 11.498C109.484 11.2647 109.39 11.106 109.278 11.022C109.185 10.9567 109.138 10.8587 109.138 10.728C109.138 10.6627 109.148 10.616 109.166 10.588C109.185 10.5693 109.232 10.56 109.306 10.56C109.316 10.56 109.432 10.5693 109.656 10.588C109.955 10.616 110.193 10.63 110.37 10.63C110.51 10.63 110.58 10.6673 110.58 10.742C110.58 10.798 110.524 10.84 110.412 10.868C110.235 10.9147 110.212 11.0033 110.342 11.134C110.417 11.2087 110.422 11.2927 110.356 11.386C110.31 11.4607 110.286 11.5167 110.286 11.554C110.286 11.6473 110.389 11.694 110.594 11.694C110.744 11.694 110.968 11.666 111.266 11.61C111.378 11.5913 111.523 11.568 111.7 11.54C111.878 11.512 112.022 11.484 112.134 11.456C112.256 11.4373 112.34 11.428 112.386 11.428C112.545 11.4093 112.708 11.3253 112.876 11.176C113.044 11.0267 113.128 10.8913 113.128 10.77C113.128 10.686 113.049 10.5973 112.89 10.504C112.732 10.42 112.573 10.378 112.414 10.378C111.929 10.378 111.271 10.2193 110.44 9.902C110.086 9.77133 109.866 9.678 109.782 9.622C109.698 9.566 109.642 9.47267 109.614 9.342C109.586 9.16467 109.605 9.05733 109.67 9.02C109.745 8.97333 109.708 8.894 109.558 8.782L109.348 8.6L109.6 8.39C110.011 8.04467 110.93 7.57333 112.358 6.976ZM115.9 7.928C115.9 7.9 115.825 7.886 115.676 7.886C115.564 7.89533 115.508 7.92333 115.508 7.97C115.536 8.00733 115.606 8.02133 115.718 8.012C115.839 7.99333 115.9 7.96533 115.9 7.928ZM119.26 4.106C119.334 3.91933 119.423 3.826 119.526 3.826C119.572 3.826 119.596 3.86333 119.596 3.938C119.596 4.05 119.442 4.736 119.134 5.996L118.686 7.9L118.854 8.082C118.938 8.166 118.98 8.264 118.98 8.376C118.98 8.53467 118.891 8.684 118.714 8.824C118.602 8.91733 118.429 9.41667 118.196 10.322C118.158 10.462 118.121 10.6067 118.084 10.756C118.046 10.9053 118.014 11.036 117.986 11.148C117.958 11.2693 117.93 11.3767 117.902 11.47C117.883 11.5633 117.864 11.638 117.846 11.694C117.827 11.75 117.818 11.7827 117.818 11.792C117.799 11.82 117.771 11.834 117.734 11.834C117.65 11.834 117.542 11.792 117.412 11.708C117.29 11.624 117.206 11.5353 117.16 11.442C117.122 11.3673 117.104 11.302 117.104 11.246C117.104 11.1247 117.197 10.6347 117.384 9.776C117.533 9.09467 117.608 8.71667 117.608 8.642C117.608 8.59533 117.351 8.572 116.838 8.572H116.082L115.928 9.062C115.629 10.154 115.461 10.7653 115.424 10.896C115.377 10.9987 115.256 11.106 115.06 11.218C114.826 11.33 114.677 11.512 114.612 11.764C114.574 11.904 114.509 12.044 114.416 12.184C114.332 12.3333 114.266 12.408 114.22 12.408C114.201 12.408 114.192 12.3893 114.192 12.352C114.192 12.2587 114.35 11.456 114.668 9.944C114.994 8.42267 115.172 7.65267 115.2 7.634C115.237 7.59667 115.256 7.54067 115.256 7.466C115.256 7.37267 115.354 7.312 115.55 7.284L115.858 7.228L115.578 7.214C115.503 7.20467 115.452 7.2 115.424 7.2C115.396 7.19067 115.368 7.172 115.34 7.144C115.321 7.116 115.312 7.074 115.312 7.018C115.312 6.934 115.349 6.72867 115.424 6.402C115.508 6.066 115.55 5.75333 115.55 5.464C115.568 5.128 115.606 4.87133 115.662 4.694C115.708 4.54467 115.755 4.44667 115.802 4.4C115.858 4.35333 115.96 4.316 116.11 4.288C116.259 4.26933 116.436 4.232 116.642 4.176C116.67 4.16667 116.698 4.162 116.726 4.162C116.8 4.162 116.838 4.29267 116.838 4.554C116.838 4.862 116.74 5.464 116.544 6.36C116.338 7.30267 116.236 7.79267 116.236 7.83C116.236 7.858 116.441 7.872 116.852 7.872H117.104L117.972 7.844L118.364 6.332C118.616 5.352 118.807 4.78733 118.938 4.638C119.078 4.47933 119.185 4.302 119.26 4.106ZM123.613 8.404C123.613 8.35733 123.576 8.32467 123.501 8.306C123.436 8.278 123.366 8.27333 123.291 8.292C123.161 8.33867 123.137 8.39 123.221 8.446C123.259 8.474 123.315 8.488 123.389 8.488C123.539 8.488 123.613 8.46 123.613 8.404ZM122.241 8.264C122.241 8.24533 122.213 8.236 122.157 8.236C122.101 8.236 122.073 8.264 122.073 8.32C122.073 8.39467 122.115 8.39467 122.199 8.32C122.227 8.30133 122.241 8.28267 122.241 8.264ZM126.147 7.466L126.231 7.018C126.231 6.99933 126.199 6.99 126.133 6.99C126.021 6.99 125.886 7.01333 125.727 7.06C125.569 7.09733 125.48 7.13467 125.461 7.172C125.415 7.256 125.097 7.298 124.509 7.298H123.613L123.487 7.55L123.347 7.802H123.809C124.052 7.802 124.5 7.82067 125.153 7.858L126.049 7.914L126.147 7.466ZM122.213 6.724L122.717 6.01L124.467 6.052C125.69 6.08933 126.511 6.122 126.931 6.15L127.631 6.206L127.589 6.444C127.543 6.65867 127.505 6.88733 127.477 7.13C127.44 7.44733 127.361 7.65733 127.239 7.76C127.109 7.86267 126.894 8.36667 126.595 9.272L126.161 10.616L125.769 10.672C125.499 10.7093 125.363 10.7093 125.363 10.672C125.363 10.6253 125.419 10.3313 125.531 9.79C125.653 9.23933 125.713 8.93133 125.713 8.866C125.713 8.84733 125.676 8.838 125.601 8.838C125.424 8.838 125.135 8.86133 124.733 8.908C124.108 8.98267 123.515 9.034 122.955 9.062C122.554 9.08067 122.302 9.104 122.199 9.132C122.097 9.15067 122.022 9.20667 121.975 9.3C121.929 9.39333 121.868 9.454 121.793 9.482C121.728 9.50067 121.583 9.51 121.359 9.51C121.005 9.51 120.795 9.53333 120.729 9.58C120.692 9.608 120.673 9.63133 120.673 9.65C120.673 9.706 120.813 9.734 121.093 9.734C121.252 9.734 121.383 9.72933 121.485 9.72C121.887 9.67333 122.097 9.59867 122.115 9.496C122.153 9.39333 122.223 9.33733 122.325 9.328C122.372 9.34667 122.4 9.37 122.409 9.398C122.409 9.426 122.223 9.79 121.849 10.49L121.289 11.526L120.813 11.708C120.58 11.792 120.426 11.834 120.351 11.834C120.295 11.834 120.249 11.82 120.211 11.792C120.202 11.7827 120.165 11.75 120.099 11.694C120.034 11.6473 119.959 11.5913 119.875 11.526C119.801 11.47 119.731 11.414 119.665 11.358L119.259 11.022L119.693 10.392C119.983 9.972 120.169 9.762 120.253 9.762C120.3 9.762 120.323 9.72467 120.323 9.65C120.323 9.54733 120.515 9.21133 120.897 8.642L121.513 7.76L121.933 7.718C122.204 7.68067 122.358 7.62933 122.395 7.564C122.414 7.51733 122.377 7.494 122.283 7.494L122.087 7.508C121.854 7.54533 121.737 7.54533 121.737 7.508C121.737 7.452 121.896 7.19067 122.213 6.724Z" fill="black"/>
</g>
<defs>
<clipPath id="clip0_192_6">
<rect width="139" height="18" fill="white"/>
</clipPath>
</defs>
</svg>
