<svg width="30" height="15" viewBox="0 0 30 15" fill="none" xmlns="http://www.w3.org/2000/svg">
<g clip-path="url(#clip0_192_6)">
<path d="M5.79155 7.388C5.76355 7.34133 5.72155 7.318 5.66555 7.318C5.60955 7.318 5.55355 7.34133 5.49755 7.388C5.45089 7.42533 5.42755 7.472 5.42755 7.528C5.42755 7.612 5.53022 7.654 5.73555 7.654C5.85689 7.654 5.95955 7.63533 6.04355 7.598C6.15555 7.56067 6.20222 7.50933 6.18355 7.444C6.16489 7.39733 6.10889 7.388 6.01555 7.416C5.90355 7.45333 5.82889 7.444 5.79155 7.388ZM10.5236 6.8C10.5982 6.8 10.5889 6.75333 10.4956 6.66C10.4862 6.64133 10.4769 6.632 10.4676 6.632C10.4396 6.632 10.4256 6.66 10.4256 6.716C10.4256 6.772 10.4582 6.8 10.5236 6.8ZM10.5936 6.464C10.5189 6.464 10.5002 6.48267 10.5376 6.52C10.5749 6.55733 10.6122 6.55733 10.6496 6.52C10.6496 6.492 10.6309 6.47333 10.5936 6.464ZM6.12755 4.672C7.04222 2.87067 7.50889 1.97 7.52755 1.97L7.72355 2.054C7.79822 2.09133 7.83555 2.12867 7.83555 2.166C7.83555 2.20333 7.80755 2.278 7.75155 2.39C7.66755 2.558 7.64889 2.65133 7.69555 2.67C7.72355 2.698 7.94289 2.73067 8.35355 2.768L8.95555 2.824L9.23555 4.868C9.41289 6.19333 9.52955 6.92133 9.58555 7.052C9.62289 7.136 9.69289 7.07533 9.79555 6.87L9.82355 6.786C10.1596 6.03 10.5796 5.134 11.0836 4.098C11.5969 3.062 11.8956 2.488 11.9796 2.376C12.0822 2.21733 12.1476 2.15667 12.1756 2.194C12.1849 2.20333 12.1989 2.236 12.2176 2.292C12.2549 2.38533 12.3109 2.446 12.3856 2.474C12.4696 2.502 12.6516 2.53933 12.9316 2.586C13.3236 2.65133 13.5569 2.70267 13.6316 2.74C13.7062 2.77733 13.7436 2.86133 13.7436 2.992C13.7436 3.09467 13.7669 3.17867 13.8136 3.244C13.8696 3.30933 13.9816 3.39333 14.1496 3.496L14.6116 3.79C14.6116 4.13533 14.4762 5.09667 14.2056 6.674C13.9256 8.39133 13.7856 9.37133 13.7856 9.614C13.7856 9.754 13.7996 9.87067 13.8276 9.964C13.8649 10.132 13.8836 10.2393 13.8836 10.286C13.8836 10.426 13.7762 10.7667 13.5616 11.308L13.1976 12.232L12.9036 12.218L12.5956 12.19L12.3996 11.168C12.3062 10.7013 12.2596 10.3 12.2596 9.964V9.894C12.3716 9.23133 12.4789 8.004 12.5816 6.212C12.6189 5.596 12.6516 5.19 12.6796 4.994C12.7169 4.77933 12.7076 4.672 12.6516 4.672C12.6142 4.672 12.4649 4.94733 12.2036 5.498C11.9422 6.03933 11.7042 6.562 11.4896 7.066C11.4056 7.28067 11.3402 7.388 11.2936 7.388C11.2656 7.388 11.2422 7.444 11.2236 7.556C11.2142 7.668 10.9762 8.228 10.5096 9.236C10.0522 10.244 9.80022 10.7573 9.75355 10.776H9.73955C9.64622 10.776 9.39889 10.6173 8.99756 10.3C8.59622 9.97333 8.38155 9.75867 8.35355 9.656C8.31622 9.53467 8.29755 9.40867 8.29755 9.278C8.29755 9.10067 8.33489 9.012 8.40955 9.012C8.44689 9.012 8.49355 9.05867 8.54955 9.152C8.57755 9.208 8.61489 9.236 8.66155 9.236C8.73622 9.236 8.79222 9.152 8.82955 8.984C8.83889 8.89067 8.89022 8.872 8.98355 8.928C9.05822 8.97467 9.06289 9.04 8.99756 9.124C8.96022 9.16133 8.93689 9.18933 8.92755 9.208C8.92755 9.22667 8.94155 9.24067 8.96955 9.25C8.99755 9.25933 9.04422 9.264 9.10955 9.264C9.20289 9.264 9.25889 9.25 9.27755 9.222C9.30555 9.18467 9.31956 9.11 9.31956 8.998C9.31956 8.83 9.27756 8.746 9.19355 8.746C9.17489 8.746 9.10955 8.75533 8.99756 8.774H8.85755C8.69889 8.774 8.59155 8.76 8.53555 8.732C8.44222 8.68533 8.39089 8.71333 8.38155 8.816C8.38155 8.85333 8.37689 8.872 8.36755 8.872C8.33955 8.872 8.29755 8.75533 8.24155 8.522C8.18555 8.27933 8.15289 8.08333 8.14355 7.934V7.584L9.58555 7.626C9.86555 7.63533 10.1782 7.64 10.5236 7.64C10.8409 7.64 10.9996 7.61667 10.9996 7.57C10.9996 7.50467 10.9016 7.46267 10.7056 7.444C10.5096 7.42533 10.1269 7.40667 9.55755 7.388C8.60555 7.35067 8.12022 7.32267 8.10155 7.304C8.06422 7.26667 7.99422 6.86067 7.89155 6.086C7.77955 5.29267 7.71889 4.896 7.70955 4.896C7.67222 4.896 7.25689 5.694 6.46355 7.29C5.31555 9.586 4.67155 10.8787 4.53155 11.168L3.94355 11.336C3.56089 11.448 3.32755 11.5273 3.24355 11.574C3.18755 11.602 2.95422 12.1667 2.54355 13.268C2.13289 14.36 1.90889 14.9247 1.87155 14.962C1.84355 14.99 1.81555 15.004 1.78755 15.004C1.71289 15.004 1.62889 14.9247 1.53555 14.766C1.44222 14.6167 1.36755 14.4253 1.31155 14.192L1.17155 13.618L1.38155 13.254C1.47489 13.086 1.55422 12.974 1.61955 12.918C1.68489 12.862 1.77822 12.8293 1.89955 12.82L2.20755 12.778L2.90755 11.168C3.25289 10.3747 3.61689 9.6 3.99955 8.844C4.38222 8.088 4.60622 7.696 4.67155 7.668C4.71822 7.64933 4.74155 7.59333 4.74155 7.5C4.74155 7.416 5.20355 6.47333 6.12755 4.672ZM14.7266 8.55C14.792 8.58733 14.848 8.58733 14.8946 8.55C14.9133 8.522 14.8993 8.508 14.8526 8.508C14.834 8.508 14.8106 8.508 14.7826 8.508C14.708 8.508 14.68 8.51733 14.6986 8.536C14.6986 8.536 14.708 8.54067 14.7266 8.55ZM18.4226 7.794C18.376 7.77533 18.3246 7.76133 18.2686 7.752C18.166 7.752 18.1193 7.76133 18.1286 7.78C18.1286 7.78 18.1426 7.78467 18.1706 7.794C18.264 7.81267 18.348 7.81267 18.4226 7.794ZM17.7926 7.738C17.718 7.738 17.6993 7.75667 17.7366 7.794C17.774 7.83133 17.8113 7.83133 17.8486 7.794C17.8486 7.766 17.83 7.74733 17.7926 7.738ZM17.2046 7.822C17.41 7.794 17.5126 7.77533 17.5126 7.766C17.5126 7.75667 17.3213 7.74733 16.9386 7.738C16.4346 7.738 16.1826 7.766 16.1826 7.822C16.1826 7.86867 16.2713 7.892 16.4486 7.892C16.6726 7.892 16.9246 7.86867 17.2046 7.822ZM21.8806 4.434C24.6993 3.01533 26.1273 2.306 26.1646 2.306C26.1833 2.306 26.1926 2.348 26.1926 2.432C26.1926 2.516 26.062 2.656 25.8006 2.852C25.5393 3.048 25.3293 3.27667 25.1706 3.538C25.068 3.69667 24.942 3.82733 24.7926 3.93C24.6433 4.03267 24.3446 4.20067 23.8966 4.434C23.206 4.77 22.772 5.01733 22.5946 5.176C22.4733 5.29733 21.8153 5.68 20.6206 6.324C19.4726 6.93067 18.8986 7.24333 18.8986 7.262C18.8986 7.28067 19.2393 7.49533 19.9206 7.906C20.602 8.31667 20.9426 8.55467 20.9426 8.62C20.9426 8.68533 20.8773 8.73667 20.7466 8.774C20.672 8.79267 20.63 8.816 20.6206 8.844C20.6206 8.86267 20.6393 8.89533 20.6766 8.942C20.7513 9.03533 20.868 9.11467 21.0266 9.18C21.2506 9.28267 21.3626 9.51133 21.3626 9.866C21.3626 9.88467 21.358 9.922 21.3486 9.978C21.3486 10.0247 21.3486 10.062 21.3486 10.09C21.3393 10.2113 21.3393 10.2907 21.3486 10.328C21.3673 10.3653 21.4046 10.384 21.4606 10.384C21.5353 10.384 22.534 10.8927 24.4566 11.91C26.3793 12.9367 27.4153 13.45 27.5646 13.45H27.5786L27.5926 13.436C27.6113 13.436 27.6253 13.436 27.6346 13.436C27.7746 13.436 27.9566 13.4873 28.1806 13.59C28.3766 13.674 28.5073 13.744 28.5726 13.8C28.6473 13.8653 28.7033 13.9633 28.7406 14.094C28.7966 14.29 28.8246 14.4393 28.8246 14.542C28.8246 14.626 28.806 14.668 28.7686 14.668H28.7546C28.5306 14.556 27.3966 13.9447 25.3526 12.834C23.318 11.7327 21.3626 10.678 19.4866 9.67C17.62 8.662 16.6773 8.16267 16.6586 8.172C16.64 8.19067 16.36 8.65733 15.8186 9.572C15.2773 10.496 14.9833 10.958 14.9366 10.958C14.918 10.958 14.7966 10.8833 14.5726 10.734C14.358 10.5847 14.2506 10.5007 14.2506 10.482C14.2506 10.4727 14.26 10.4447 14.2786 10.398C14.2973 10.3513 14.3206 10.2813 14.3486 10.188C14.386 10.0947 14.4186 10.0107 14.4466 9.936C14.568 9.656 14.6286 9.474 14.6286 9.39C14.6286 9.34333 14.596 9.23133 14.5306 9.054L14.3906 8.69L15.5106 6.59C16.2666 5.19933 16.7053 4.504 16.8266 4.504C16.8546 4.504 16.8686 4.53667 16.8686 4.602C16.8686 4.64867 16.976 4.672 17.1906 4.672C17.3493 4.672 17.48 4.66733 17.5826 4.658C17.704 4.64867 17.844 4.644 18.0026 4.644C18.2266 4.644 18.3386 4.686 18.3386 4.77C18.3386 4.854 18.208 5.15733 17.9466 5.68C17.8813 5.82 17.83 5.92733 17.7926 6.002C17.7553 6.07667 17.7133 6.16067 17.6666 6.254C17.6293 6.34733 17.6013 6.41733 17.5826 6.464C17.5733 6.50133 17.5733 6.52 17.5826 6.52C17.6853 6.52 19.118 5.82467 21.8806 4.434Z" fill="#00F0FF"/>
<path d="M5.79155 6.388C5.76355 6.34133 5.72155 6.318 5.66555 6.318C5.60955 6.318 5.55355 6.34133 5.49755 6.388C5.45089 6.42533 5.42755 6.472 5.42755 6.528C5.42755 6.612 5.53022 6.654 5.73555 6.654C5.85689 6.654 5.95955 6.63533 6.04355 6.598C6.15555 6.56067 6.20222 6.50933 6.18355 6.444C6.16489 6.39733 6.10889 6.388 6.01555 6.416C5.90355 6.45333 5.82889 6.444 5.79155 6.388ZM10.5236 5.8C10.5982 5.8 10.5889 5.75333 10.4956 5.66C10.4862 5.64133 10.4769 5.632 10.4676 5.632C10.4396 5.632 10.4256 5.66 10.4256 5.716C10.4256 5.772 10.4582 5.8 10.5236 5.8ZM10.5936 5.464C10.5189 5.464 10.5002 5.48267 10.5376 5.52C10.5749 5.55733 10.6122 5.55733 10.6496 5.52C10.6496 5.492 10.6309 5.47333 10.5936 5.464ZM6.12755 3.672C7.04222 1.87067 7.50889 0.969999 7.52755 0.969999L7.72355 1.054C7.79822 1.09133 7.83555 1.12867 7.83555 1.166C7.83555 1.20333 7.80755 1.278 7.75155 1.39C7.66755 1.558 7.64889 1.65133 7.69555 1.67C7.72355 1.698 7.94289 1.73067 8.35355 1.768L8.95555 1.824L9.23555 3.868C9.41289 5.19333 9.52955 5.92133 9.58555 6.052C9.62289 6.136 9.69289 6.07533 9.79555 5.87L9.82355 5.786C10.1596 5.03 10.5796 4.134 11.0836 3.098C11.5969 2.062 11.8956 1.488 11.9796 1.376C12.0822 1.21733 12.1476 1.15667 12.1756 1.194C12.1849 1.20333 12.1989 1.236 12.2176 1.292C12.2549 1.38533 12.3109 1.446 12.3856 1.474C12.4696 1.502 12.6516 1.53933 12.9316 1.586C13.3236 1.65133 13.5569 1.70267 13.6316 1.74C13.7062 1.77733 13.7436 1.86133 13.7436 1.992C13.7436 2.09467 13.7669 2.17867 13.8136 2.244C13.8696 2.30933 13.9816 2.39333 14.1496 2.496L14.6116 2.79C14.6116 3.13533 14.4762 4.09667 14.2056 5.674C13.9256 7.39133 13.7856 8.37133 13.7856 8.614C13.7856 8.754 13.7996 8.87067 13.8276 8.964C13.8649 9.132 13.8836 9.23933 13.8836 9.286C13.8836 9.426 13.7762 9.76667 13.5616 10.308L13.1976 11.232L12.9036 11.218L12.5956 11.19L12.3996 10.168C12.3062 9.70133 12.2596 9.3 12.2596 8.964V8.894C12.3716 8.23133 12.4789 7.004 12.5816 5.212C12.6189 4.596 12.6516 4.19 12.6796 3.994C12.7169 3.77933 12.7076 3.672 12.6516 3.672C12.6142 3.672 12.4649 3.94733 12.2036 4.498C11.9422 5.03933 11.7042 5.562 11.4896 6.066C11.4056 6.28067 11.3402 6.388 11.2936 6.388C11.2656 6.388 11.2422 6.444 11.2236 6.556C11.2142 6.668 10.9762 7.228 10.5096 8.236C10.0522 9.244 9.80022 9.75733 9.75355 9.776H9.73955C9.64622 9.776 9.39889 9.61733 8.99756 9.3C8.59622 8.97333 8.38155 8.75867 8.35355 8.656C8.31622 8.53467 8.29755 8.40867 8.29755 8.278C8.29755 8.10067 8.33489 8.012 8.40955 8.012C8.44689 8.012 8.49355 8.05867 8.54955 8.152C8.57755 8.208 8.61489 8.236 8.66155 8.236C8.73622 8.236 8.79222 8.152 8.82955 7.984C8.83889 7.89067 8.89022 7.872 8.98355 7.928C9.05822 7.97467 9.06289 8.04 8.99756 8.124C8.96022 8.16133 8.93689 8.18933 8.92755 8.208C8.92755 8.22667 8.94155 8.24067 8.96955 8.25C8.99755 8.25933 9.04422 8.264 9.10955 8.264C9.20289 8.264 9.25889 8.25 9.27755 8.222C9.30555 8.18467 9.31956 8.11 9.31956 7.998C9.31956 7.83 9.27756 7.746 9.19355 7.746C9.17489 7.746 9.10955 7.75533 8.99756 7.774H8.85755C8.69889 7.774 8.59155 7.76 8.53555 7.732C8.44222 7.68533 8.39089 7.71333 8.38155 7.816C8.38155 7.85333 8.37689 7.872 8.36755 7.872C8.33955 7.872 8.29755 7.75533 8.24155 7.522C8.18555 7.27933 8.15289 7.08333 8.14355 6.934V6.584L9.58555 6.626C9.86555 6.63533 10.1782 6.64 10.5236 6.64C10.8409 6.64 10.9996 6.61667 10.9996 6.57C10.9996 6.50467 10.9016 6.46267 10.7056 6.444C10.5096 6.42533 10.1269 6.40667 9.55755 6.388C8.60555 6.35067 8.12022 6.32267 8.10155 6.304C8.06422 6.26667 7.99422 5.86067 7.89155 5.086C7.77955 4.29267 7.71889 3.896 7.70955 3.896C7.67222 3.896 7.25689 4.694 6.46355 6.29C5.31555 8.586 4.67155 9.87867 4.53155 10.168L3.94355 10.336C3.56089 10.448 3.32755 10.5273 3.24355 10.574C3.18755 10.602 2.95422 11.1667 2.54355 12.268C2.13289 13.36 1.90889 13.9247 1.87155 13.962C1.84355 13.99 1.81555 14.004 1.78755 14.004C1.71289 14.004 1.62889 13.9247 1.53555 13.766C1.44222 13.6167 1.36755 13.4253 1.31155 13.192L1.17155 12.618L1.38155 12.254C1.47489 12.086 1.55422 11.974 1.61955 11.918C1.68489 11.862 1.77822 11.8293 1.89955 11.82L2.20755 11.778L2.90755 10.168C3.25289 9.37467 3.61689 8.6 3.99955 7.844C4.38222 7.088 4.60622 6.696 4.67155 6.668C4.71822 6.64933 4.74155 6.59333 4.74155 6.5C4.74155 6.416 5.20355 5.47333 6.12755 3.672ZM14.7266 7.55C14.792 7.58733 14.848 7.58733 14.8946 7.55C14.9133 7.522 14.8993 7.508 14.8526 7.508C14.834 7.508 14.8106 7.508 14.7826 7.508C14.708 7.508 14.68 7.51733 14.6986 7.536C14.6986 7.536 14.708 7.54067 14.7266 7.55ZM18.4226 6.794C18.376 6.77533 18.3246 6.76133 18.2686 6.752C18.166 6.752 18.1193 6.76133 18.1286 6.78C18.1286 6.78 18.1426 6.78467 18.1706 6.794C18.264 6.81267 18.348 6.81267 18.4226 6.794ZM17.7926 6.738C17.718 6.738 17.6993 6.75667 17.7366 6.794C17.774 6.83133 17.8113 6.83133 17.8486 6.794C17.8486 6.766 17.83 6.74733 17.7926 6.738ZM17.2046 6.822C17.41 6.794 17.5126 6.77533 17.5126 6.766C17.5126 6.75667 17.3213 6.74733 16.9386 6.738C16.4346 6.738 16.1826 6.766 16.1826 6.822C16.1826 6.86867 16.2713 6.892 16.4486 6.892C16.6726 6.892 16.9246 6.86867 17.2046 6.822ZM21.8806 3.434C24.6993 2.01533 26.1273 1.306 26.1646 1.306C26.1833 1.306 26.1926 1.348 26.1926 1.432C26.1926 1.516 26.062 1.656 25.8006 1.852C25.5393 2.048 25.3293 2.27667 25.1706 2.538C25.068 2.69667 24.942 2.82733 24.7926 2.93C24.6433 3.03267 24.3446 3.20067 23.8966 3.434C23.206 3.77 22.772 4.01733 22.5946 4.176C22.4733 4.29733 21.8153 4.68 20.6206 5.324C19.4726 5.93067 18.8986 6.24333 18.8986 6.262C18.8986 6.28067 19.2393 6.49533 19.9206 6.906C20.602 7.31667 20.9426 7.55467 20.9426 7.62C20.9426 7.68533 20.8773 7.73667 20.7466 7.774C20.672 7.79267 20.63 7.816 20.6206 7.844C20.6206 7.86267 20.6393 7.89533 20.6766 7.942C20.7513 8.03533 20.868 8.11467 21.0266 8.18C21.2506 8.28267 21.3626 8.51133 21.3626 8.866C21.3626 8.88467 21.358 8.922 21.3486 8.978C21.3486 9.02467 21.3486 9.062 21.3486 9.09C21.3393 9.21133 21.3393 9.29067 21.3486 9.328C21.3673 9.36533 21.4046 9.384 21.4606 9.384C21.5353 9.384 22.534 9.89267 24.4566 10.91C26.3793 11.9367 27.4153 12.45 27.5646 12.45H27.5786L27.5926 12.436C27.6113 12.436 27.6253 12.436 27.6346 12.436C27.7746 12.436 27.9566 12.4873 28.1806 12.59C28.3766 12.674 28.5073 12.744 28.5726 12.8C28.6473 12.8653 28.7033 12.9633 28.7406 13.094C28.7966 13.29 28.8246 13.4393 28.8246 13.542C28.8246 13.626 28.806 13.668 28.7686 13.668H28.7546C28.5306 13.556 27.3966 12.9447 25.3526 11.834C23.318 10.7327 21.3626 9.678 19.4866 8.67C17.62 7.662 16.6773 7.16267 16.6586 7.172C16.64 7.19067 16.36 7.65733 15.8186 8.572C15.2773 9.496 14.9833 9.958 14.9366 9.958C14.918 9.958 14.7966 9.88333 14.5726 9.734C14.358 9.58467 14.2506 9.50067 14.2506 9.482C14.2506 9.47267 14.26 9.44467 14.2786 9.398C14.2973 9.35133 14.3206 9.28133 14.3486 9.188C14.386 9.09467 14.4186 9.01067 14.4466 8.936C14.568 8.656 14.6286 8.474 14.6286 8.39C14.6286 8.34333 14.596 8.23133 14.5306 8.054L14.3906 7.69L15.5106 5.59C16.2666 4.19933 16.7053 3.504 16.8266 3.504C16.8546 3.504 16.8686 3.53667 16.8686 3.602C16.8686 3.64867 16.976 3.672 17.1906 3.672C17.3493 3.672 17.48 3.66733 17.5826 3.658C17.704 3.64867 17.844 3.644 18.0026 3.644C18.2266 3.644 18.3386 3.686 18.3386 3.77C18.3386 3.854 18.208 4.15733 17.9466 4.68C17.8813 4.82 17.83 4.92733 17.7926 5.002C17.7553 5.07667 17.7133 5.16067 17.6666 5.254C17.6293 5.34733 17.6013 5.41733 17.5826 5.464C17.5733 5.50133 17.5733 5.52 17.5826 5.52C17.6853 5.52 19.118 4.82467 21.8806 3.434Z" fill="black"/>
</g>
<defs>
<clipPath id="clip0_192_6">
<rect width="30" height="15" fill="white"/>
</clipPath>
</defs>
</svg>
