<svg width="40" height="40" viewBox="0 0 53 49" fill="none" xmlns="http://www.w3.org/2000/svg">
<mask id="path-1-inside-1_0_1" fill="white">
<path fill-rule="evenodd" clip-rule="evenodd" d="M27.6842 1H16V49H27L27.249 31.5349L46.6711 46L53 38.3661L34.7532 24.8517L53 8.63393L46.6711 1L27.4414 18.0312L27.6842 1Z"/>
</mask>
<path fill-rule="evenodd" clip-rule="evenodd" d="M27.6842 1H16V49H27L27.249 31.5349L46.6711 46L53 38.3661L34.7532 24.8517L53 8.63393L46.6711 1L27.4414 18.0312L27.6842 1Z" fill="white"/>
<path d="M16 1V-1H14V1H16ZM27.6842 1L29.684 1.02851L29.7129 -1H27.6842V1ZM16 49H14V51H16V49ZM27 49V51H28.9717L28.9998 49.0285L27 49ZM27.249 31.5349L28.4436 29.9309L25.3049 27.5933L25.2492 31.5064L27.249 31.5349ZM46.6711 46L45.4764 47.604L46.999 48.738L48.2107 47.2765L46.6711 46ZM53 38.3661L54.5397 39.6425L55.888 38.0162L54.1904 36.7589L53 38.3661ZM34.7532 24.8517L33.4245 23.3568L31.5836 24.993L33.5628 26.4589L34.7532 24.8517ZM53 8.63393L54.3286 10.1288L55.773 8.84508L54.5397 7.35745L53 8.63393ZM46.6711 1L48.2107 -0.276477L46.8919 -1.86724L45.345 -0.497204L46.6711 1ZM27.4414 18.0312L25.4416 18.0027L25.3771 22.5312L28.7675 19.5284L27.4414 18.0312ZM16 3H27.6842V-1H16V3ZM18 49V1H14V49H18ZM27 47H16V51H27V47ZM25.2492 31.5064L25.0002 48.9715L28.9998 49.0285L29.2488 31.5634L25.2492 31.5064ZM47.8657 44.396L28.4436 29.9309L26.0543 33.1389L45.4764 47.604L47.8657 44.396ZM51.4603 37.0896L45.1314 44.7235L48.2107 47.2765L54.5397 39.6425L51.4603 37.0896ZM33.5628 26.4589L51.8096 39.9733L54.1904 36.7589L35.9436 23.2445L33.5628 26.4589ZM51.6713 7.13904L33.4245 23.3568L36.0819 26.3466L54.3286 10.1288L51.6713 7.13904ZM45.1314 2.27648L51.4603 9.91041L54.5397 7.35745L48.2107 -0.276477L45.1314 2.27648ZM28.7675 19.5284L47.9971 2.4972L45.345 -0.497204L26.1154 16.534L28.7675 19.5284ZM25.6844 0.971494L25.4416 18.0027L29.4412 18.0597L29.684 1.02851L25.6844 0.971494Z" fill="black" mask="url(#path-1-inside-1_0_1)"/>
<mask id="path-3-inside-2_0_1" fill="white">
<path fill-rule="evenodd" clip-rule="evenodd" d="M44 4.08427V7.62939e-05V0H34V7.62939e-05L27 6.27091V16.413L34 10.3661V12.253L44 4.08427ZM34 22.8846V43H44V14.5766L34 22.8846ZM10 7.62939e-05L17 6.27091V16.413L10 10.3661V43.0001H0V7.62939e-05H10Z"/>
</mask>
<path fill-rule="evenodd" clip-rule="evenodd" d="M44 4.08427V7.62939e-05V0H34V7.62939e-05L27 6.27091V16.413L34 10.3661V12.253L44 4.08427ZM34 22.8846V43H44V14.5766L34 22.8846ZM10 7.62939e-05L17 6.27091V16.413L10 10.3661V43.0001H0V7.62939e-05H10Z" fill="black"/>
<path d="M44 4.08427L44.6326 4.85872L45 4.55863V4.08427H44ZM44 0H45V-1H44V0ZM34 0V-1H33V0H34ZM34 7.62939e-05L34.6672 0.744912L35 0.446822V7.62939e-05H34ZM27 6.27091L26.3328 5.52607L26 5.82416V6.27091H27ZM27 16.413H26V18.5983L27.6537 17.1698L27 16.413ZM34 10.3661H35V8.18086L33.3463 9.6094L34 10.3661ZM34 12.253H33V14.3611L34.6326 13.0274L34 12.253ZM34 43H33V44H34V43ZM34 22.8846L33.361 22.1154L33 22.4153V22.8846H34ZM44 43V44H45V43H44ZM44 14.5766H45V12.4458L43.361 13.8075L44 14.5766ZM17 6.27091H18V5.82416L17.6672 5.52607L17 6.27091ZM10 7.62939e-05L10.6672 -0.744759L10.3824 -0.999924H10V7.62939e-05ZM17 16.413L16.3463 17.1698L18 18.5983V16.413H17ZM10 10.3661L10.6537 9.6094L9 8.18086V10.3661H10ZM10 43.0001V44.0001H11V43.0001H10ZM0 43.0001H-1V44.0001H0V43.0001ZM0 7.62939e-05V-0.999924H-1V7.62939e-05H0ZM43 7.62939e-05V4.08427H45V7.62939e-05H43ZM43 0V7.62939e-05H45V0H43ZM34 1H44V-1H34V1ZM35 7.62939e-05V0H33V7.62939e-05H35ZM27.6672 7.01575L34.6672 0.744912L33.3328 -0.744759L26.3328 5.52607L27.6672 7.01575ZM28 16.413V6.27091H26V16.413H28ZM33.3463 9.6094L26.3463 15.6563L27.6537 17.1698L34.6537 11.1229L33.3463 9.6094ZM35 12.253V10.3661H33V12.253H35ZM34.6326 13.0274L44.6326 4.85872L43.3674 3.30982L33.3674 11.4785L34.6326 13.0274ZM35 43V22.8846H33V43H35ZM44 42H34V44H44V42ZM43 14.5766V43H45V14.5766H43ZM43.361 13.8075L33.361 22.1154L34.639 23.6538L44.639 15.3458L43.361 13.8075ZM17.6672 5.52607L10.6672 -0.744759L9.33275 0.744912L16.3328 7.01575L17.6672 5.52607ZM18 16.413V6.27091H16V16.413H18ZM9.34629 11.1229L16.3463 17.1698L17.6537 15.6563L10.6537 9.6094L9.34629 11.1229ZM11 43.0001V10.3661H9V43.0001H11ZM0 44.0001H10V42.0001H0V44.0001ZM-1 7.62939e-05V43.0001H1V7.62939e-05H-1ZM10 -0.999924H0V1.00008H10V-0.999924Z" fill="black" mask="url(#path-3-inside-2_0_1)"/>
</svg>
